<?xml version="1.0" encoding="UTF-8"?>
<svg id="Calque_1" data-name="Calque 1" xmlns="http://www.w3.org/2000/svg" width="663.09" height="446.3" xmlns:xlink="http://www.w3.org/1999/xlink" viewBox="0 0 663.09 446.3">
  <defs>
    <style>
      .cls-1, .cls-2, .cls-3, .cls-4, .cls-5, .cls-6, .cls-7, .cls-8 {
        fill-rule: evenodd;
      }

      .cls-1, .cls-9 {
        fill: #b6e5ff;
      }

      .cls-10 {
        clip-path: url(#clippath-6);
      }

      .cls-11 {
        clip-path: url(#clippath-7);
      }

      .cls-12 {
        clip-path: url(#clippath-4);
      }

      .cls-2 {
        fill: #ede8e9;
      }

      .cls-13, .cls-5 {
        fill: #777;
      }

      .cls-14, .cls-4 {
        fill: #fff;
      }

      .cls-15, .cls-8 {
        fill: #489dcc;
      }

      .cls-3 {
        fill: #73be18;
      }

      .cls-16 {
        fill: none;
      }

      .cls-17 {
        clip-path: url(#clippath-1);
      }

      .cls-18 {
        clip-path: url(#clippath-5);
      }

      .cls-6, .cls-19 {
        fill: #323336;
      }

      .cls-20 {
        clip-path: url(#clippath-3);
      }

      .cls-7 {
        fill: #82c9f6;
      }

      .cls-21 {
        fill: #ebeeee;
      }

      .cls-22 {
        clip-path: url(#clippath-2);
      }

      .cls-23 {
        clip-path: url(#clippath);
      }
    </style>
    <clipPath id="clippath">
      <path class="cls-16" d="M182.33,427.86s1.47,3.85,12.98,5.29c.78.1,1.55.2,2.33.22.39.83.76,1.66,1.04,2.52-.66.85-2.65.91-3.71,1.04-3.74.45-7.7.65-11.33-.4-3.1-.9-6.79.59-9.97-.09-.3-.83-.73-1.67-.8-2.54-.09-1.11.28-2.17.36-3.27.08-1.09,1.64-.9,2.42-.48.68.36,1.15.84,1.97.97,1.1.18,2.06-.24,3.13-.28.71-.02,1.41.27,2.05.5-.73-.71-1.65-1.35-1.98-2.29-.05-.14-.24-.67-.09-.82.32-.3,1.16-.2,1.59-.39Z"/>
    </clipPath>
    <clipPath id="clippath-1">
      <path class="cls-16" d="M215.79,427.43s1.3,3.85,11.5,5.31c.69.1,1.37.2,2.07.23.35.83.68,1.67.92,2.53-.58.84-2.35.91-3.29,1.04-3.31.44-6.82.64-10.03-.42-2.75-.9-6.01.58-8.83-.1-.27-.83-.65-1.67-.71-2.54-.08-1.11.25-2.17.32-3.27.07-1.09,1.45-.9,2.15-.48.6.36,1.02.84,1.75.97.97.18,1.82-.24,2.78-.27.63-.02,1.25.27,1.81.5-.65-.72-1.46-1.35-1.76-2.29-.04-.14-.22-.67-.08-.82.28-.3,1.03-.19,1.41-.38Z"/>
    </clipPath>
    <clipPath id="clippath-2">
      <path class="cls-16" d="M114.39,371.85c4.15-3.93,8.27-7.76,11.46-12.43,9.21-13.46,2.63-27.73-9.31-37.46-7.08-5.76-16.8-10.4-17.52-20.1-1.47-19.75,28.31-28.33,29.86-46.99,2.44-29.25-26.88-28.96-42.72-46.11-17.31-18.74-2.77-57.8-37.1-63.39-4.05-.66-8.27-.92-12.37-.4-29.58,3.77-22.19,43.83-16,60.42,4.09,10.97,11.11,21.76,21.19,29.02,8.46,6.09,20.66,10.62,24.28,20.66,5.97,16.58-15.23,22.78-12.8,38.2,2.65,16.84,28.78,16.8,36.06,31.47,9.43,19.01-4.69,43.77,16.64,58.39l8.34-11.28Z"/>
    </clipPath>
    <clipPath id="clippath-3">
      <path class="cls-16" d="M117.17,370.97c5.19-1.36,9.91-5.49,13.6-9.54,13.3-14.6,13.73-35.07,8.65-53.99-3.22-11.98-9.73-26.62-6.84-39.44,3.38-15.02,21.85-25.58,22.09-40.9.26-16.58-12.73-27.12-8.6-45.31.97-4.3,2.45-8.46,4.01-12.53,6.07-15.8,21.92-54.7-6.5-57.45-22.9-2.21-36.32,31.5-42.29,50.8-10.77,34.8-15.71,73.03-11.51,109.79,2.39,20.92,8.61,40.88,11.38,61.69,2.15,16.16,1.28,32.57,5.84,48.34,1.93,6.67,4.38,14.57,10.46,17.97l-.27-29.43Z"/>
    </clipPath>
    <clipPath id="clippath-4">
      <path class="cls-16" d="M534.48,427.65c-.38-.43-2.69-2.96,1.44-1.24,2.11.88,4.31.96,9.38.87,1.8-.03,4.59-.24,6.77.4,1.51.44,1.98,1.43,2.35,2.34-11.46,3.26-23.84,1.83-25.01,1.48-1.03-2.43.35-2.45-.75-3.46.1-.66,4.25-.59,5.82-.4Z"/>
    </clipPath>
    <clipPath id="clippath-5">
      <path class="cls-16" d="M486.33,419.25c.16-.55,1.07-3.85,1.82.55.38,2.25,1.49,4.15,4.27,8.37.99,1.5,2.65,3.74,3.27,5.91.43,1.51-.16,2.43-.73,3.23-8.88-7.92-14.28-19.1-14.61-20.27,1.51-2.16,2.27-1.02,2.53-2.48.61-.27,2.77,3.26,3.44,4.69Z"/>
    </clipPath>
    <clipPath id="clippath-6">
      <path class="cls-15" d="M633.52,424.69s-2.81,4.56-13.9,5.95c-.75.09-1.49.19-2.25.22-1.07.03-1.28.39-1.55,1.22.63.81,4.49,1.24,5.51,1.37,3.6.43,7.42.62,10.91-.39,2.99-.87,6.54.57,9.6-.09.29-.8.71-1.61.77-2.45.09-1.07-.27-2.09-.35-3.15-.08-1.05-1.58-.87-2.34-.46-.65.35-1.11.8-1.9.93-1.06.17-1.98-.23-3.02-.27-.69-.02-1.35.26-1.97.48.7-.69,1.59-1.3,1.91-2.2.05-.14.24-.65.09-.79-.31-.29-1.12-.19-1.53-.37Z"/>
    </clipPath>
    <clipPath id="clippath-7">
      <path class="cls-15" d="M601.09,424.08s-3.22,4.43-12.97,6.17c-.66.12-1.31.24-1.98.29-.69.05-.98.5-1.18,1.27.6.72,4.82.69,5.73.76,3.21.24,6.37-.2,9.64-.81,2.73-.52,5.81.24,8.49-.48.22-.74.55-1.49.58-2.27.03-.98-.33-1.9-.45-2.86-.12-.95-1.43-.73-2.09-.32-.56.34-.95.78-1.64.93-.93.2-1.76-.13-2.68-.12-.61,0-1.19.29-1.72.52.59-.66,1.35-1.25,1.6-2.09.04-.13.18-.6.04-.72-.29-.25-1-.12-1.37-.27Z"/>
    </clipPath>
  </defs>
  <g>
    <path class="cls-4" d="M238.61,23.52C238.63,10.51,249.21-.03,262.22,0l184.76.39c13.01.03,23.54,10.61,23.52,23.61l-.82,389.79c-.03,13.01-10.61,23.54-23.62,23.52l-184.76-.39c-13.01-.03-23.54-10.61-23.52-23.62l.82-389.79Z"/>
    <path class="cls-6" d="M248.47,27.73c.03-12.45,10.16-22.54,22.61-22.51l176.9.37c12.45.03,22.54,10.16,22.51,22.61l-.8,377.89c-.03,12.45-10.16,22.54-22.61,22.51l-176.9-.37c-12.45-.03-22.54-10.16-22.52-22.61l.8-377.89Z"/>
    <path class="cls-4" d="M258.9,48.43c.02-11.31,9.22-20.47,20.53-20.44l154.26.33c11.31.02,20.47,9.22,20.44,20.53l-.65,307.63c-.02,11.31-9.22,20.47-20.53,20.44l-154.26-.33c-11.31-.02-20.47-9.22-20.44-20.53l.65-307.63Z"/>
    <path class="cls-4" d="M333.42,15.42c0-1.46,1.19-2.64,2.65-2.64l38.21.08c1.46,0,2.64,1.19,2.64,2.65,0,1.46-1.19,2.64-2.65,2.64l-38.21-.08c-1.46,0-2.64-1.19-2.64-2.65Z"/>
    <ellipse class="cls-14" cx="355.94" cy="404.38" rx="11.64" ry="11.95" transform="translate(-49.2 759.47) rotate(-89.88)"/>
    <path class="cls-1" d="M279.69,293.93c0-4.5,3.66-8.14,8.16-8.13,16.56.04,54,.11,70.57.15,4.5,0,8.14,3.66,8.13,8.16-.02,10.38-.06,28.23-.08,38.61,0,4.5-3.67,8.14-8.16,8.13-15.64-.03-48.32-.1-48.32-.1,0,0-7.99,8.56-13.58,14.56-.9.97-2.3,1.3-3.54.85-1.24-.46-2.09-1.61-2.15-2.94-.27-5.73-.58-12.51-.58-12.51h-2.39c-4.5-.01-8.14-3.67-8.13-8.17.02-10.38.06-28.23.08-38.61Z"/>
    <rect class="cls-19" x="320.67" y="266.98" width="4.62" height="66.72" transform="translate(21.96 622.69) rotate(-89.88)"/>
    <rect class="cls-19" x="320.5" y="280.13" width="4.62" height="66.72" transform="translate(8.63 635.64) rotate(-89.88)"/>
    <rect class="cls-19" x="320.46" y="292.97" width="4.62" height="66.72" transform="translate(-4.23 648.41) rotate(-89.88)"/>
    <path class="cls-1" d="M414.86,56.02c.01-6.06,4.95-10.98,11.01-10.96h2.77c6.06.02,10.98,4.95,10.96,11.02v2.89c-.02,6.06-4.95,10.98-11.02,10.96h-2.77c-6.07-.02-10.98-4.95-10.96-11.02v-2.89Z"/>
    <rect class="cls-9" x="352.71" y="4.15" width="6.08" height="99.88" transform="translate(300.91 409.72) rotate(-89.88)"/>
    <rect class="cls-9" x="374.34" y="33.79" width="2.92" height="58.54" transform="translate(311.95 438.73) rotate(-89.88)"/>
    <path class="cls-1" d="M296.1,168.27c0-2.16.87-4.23,2.4-5.76,1.53-1.52,3.61-2.38,5.77-2.37,23.92.05,93.74.2,117.66.25,2.16,0,4.23.87,5.76,2.4,1.53,1.53,2.38,3.6,2.37,5.77-.02,11.14-.07,30.99-.09,42.12,0,4.5-3.66,8.14-8.16,8.13-24.12-.05-93.47-.2-93.47-.2,0,0-8.83,9.47-14.79,15.86-.9.97-2.3,1.3-3.54.85-1.24-.46-2.09-1.61-2.15-2.94-.29-6.19-.64-13.81-.64-13.81h-3.07c-2.16-.01-4.23-.87-5.76-2.41-1.53-1.53-2.38-3.6-2.37-5.77.02-11.13.07-30.99.09-42.12Z"/>
    <rect class="cls-19" x="360.55" y="119.41" width="4.92" height="112.49" transform="translate(186.58 538.3) rotate(-89.88)"/>
    <rect class="cls-19" x="360.27" y="133.41" width="4.92" height="112.49" transform="translate(172.32 551.98) rotate(-89.88)"/>
    <rect class="cls-19" x="360.24" y="147.06" width="4.92" height="112.49" transform="translate(158.62 565.57) rotate(-89.88)"/>
  </g>
  <g>
    <path class="cls-14" d="M181.29,270.58s.88-26.79.8-28.75c-.32-7.57-.35-14.27,3.47-17.21,2.13-1.64,4.74-3.84,8-4.98,1.74-.61,9.85,1.48,14.76,2.55,3.99.87,4.24,4.77,3.65,8.61l.31,33.47c-3.11,7.1-27.11,11.01-30.99,6.31"/>
    <path class="cls-5" d="M209.12,421.08c-.4,2.29.62,5.39,1.22,7.55.43,1.53.17,3.27.78,4.74.84,2.03,2.54.09,3.06-1.12.73-1.69.2-4.37-.04-6.1-.32-2.33.35-5.22-.57-7.43-.95-2.28-3.26-1.36-3.92.69"/>
    <path class="cls-5" d="M175.07,421.96c-.4,2.04.61,4.8,1.22,6.73.43,1.36.17,2.92.78,4.22.84,1.8,2.54.08,3.06-1,.73-1.51.2-3.89-.04-5.44-.32-2.08.36-4.65-.56-6.62-.95-2.03-3.26-1.21-3.92.62"/>
    <path class="cls-6" d="M182.33,427.86s1.47,3.85,12.98,5.29c.78.1,1.55.2,2.33.22.39.83.76,1.66,1.04,2.52-.66.85-2.65.91-3.71,1.04-3.74.45-7.7.65-11.33-.4-3.1-.9-6.79.59-9.97-.09-.3-.83-.73-1.67-.8-2.54-.09-1.11.28-2.17.36-3.27.08-1.09,1.64-.9,2.42-.48.68.36,1.15.84,1.97.97,1.1.18,2.06-.24,3.13-.28.71-.02,1.41.27,2.05.5-.73-.71-1.65-1.35-1.98-2.29-.05-.14-.24-.67-.09-.82.32-.3,1.16-.2,1.59-.39Z"/>
    <g class="cls-23">
      <path class="cls-2" d="M180.81,431.8h-.01s-.1.02-.1.02l-.11.02-.11.02-.11.02-.11.03-.22.06-.22.06-.21.07-.21.07-.21.08-.21.08-.2.09h0s-.2.1-.2.1l-.2.1-.19.1-.19.11-.19.11-.18.11-.18.11-.18.11-.17.11-.17.11-.17.11-.17.12h0s-.31.23-.31.23l-.3.23-.29.22-.27.21-.1.07.03-.02-.09.07-.08.05-.09.05-.09.05-.09.05-.1.05-.1.05-.1.05-.11.04-.11.04-.11.04-.24.08-.24.08-.3.1-.19.14-.17.54h-.11s-.14.26-.14.26l.24.14.1-.04.42.39.23.03.31-.06.27-.05.27-.06.14-.03.14-.03.14-.04.14-.04.14-.04.14-.05.14-.05.14-.06.14-.06.14-.07.14-.07.14-.07.31-.17.31-.17.32-.16.32-.16h0s.16-.08.16-.08l.16-.08.16-.08.17-.08.17-.07.17-.07.17-.07.17-.07.17-.06.17-.06.17-.06.16-.05h0s.16-.05.16-.05l.16-.05.16-.05.16-.04.16-.04.15-.03.16-.03h.07s.08-.02.08-.02h.07s.07-.02.07-.02h.06s0,0,0,0l.07-.02.07-.02.07-.02.07-.02.07-.02h.07s-.03-.01-.03-.01h.06s.03-.01.03-.01h.03s-.02,0-.02,0h.07s.05-.03.05-.03h.07s-.03-.01-.03-.01l.14-.02h.12s.12-.03.12-.03h.12s.05,0,.05,0h.07s.13,0,.13,0h.13s.14.02.14.02h.14s.14.03.14.03l.14.02.14.02.15.03.13.03h.02s.14.05.14.05l.29.1.58.21.29.1.3.1.15.05.15.05.15.04.15.04.67.18h.05s.6.21.6.21l1.27.42.63.21.63.2.32.1.32.1.32.1.32.1.32.09.32.09.32.09.25.07.07.02.33.09.33.08.33.08.33.08.34.08.34.07.34.07.35.07.35.06.35.06.36.05.36.05.3-.21-.22-.3-.36-.06-.35-.07-.34-.07-.34-.07-.34-.08-.33-.08-.33-.08-.33-.09-.32-.09-.32-.09-.32-.09-.32-.1-.07-.02-.24-.08-.31-.1-.31-.11-.31-.11-.31-.11-.31-.11-.31-.11-.31-.11-.61-.23-.62-.24-1.25-.49-.59-.23-.05-.02-.63-.28-.13-.06-.12-.06-.13-.06-.12-.06-.26-.14-.26-.15-.54-.3-.28-.15-.14-.08h-.02s-.12-.09-.12-.09l-.14-.09-.14-.09-.15-.09-.15-.08-.15-.08-.16-.08-.16-.08-.17-.07-.1-.04-.07-.03-.17-.06-.18-.06-.18-.06-.18-.05-.1-.02-.1-.02-.1-.02h-.05s-.05-.01-.05-.01h-.1s-.1-.02-.1-.02h-.12s-.12-.01-.12-.01h-.12s-.12,0-.12,0h-.12Z"/>
    </g>
    <path class="cls-6" d="M215.79,427.43s1.3,3.85,11.5,5.31c.69.1,1.37.2,2.07.23.35.83.68,1.67.92,2.53-.58.84-2.35.91-3.29,1.04-3.31.44-6.82.64-10.03-.42-2.75-.9-6.01.58-8.83-.1-.27-.83-.65-1.67-.71-2.54-.08-1.11.25-2.17.32-3.27.07-1.09,1.45-.9,2.15-.48.6.36,1.02.84,1.75.97.97.18,1.82-.24,2.78-.27.63-.02,1.25.27,1.81.5-.65-.72-1.46-1.35-1.76-2.29-.04-.14-.22-.67-.08-.82.28-.3,1.03-.19,1.41-.38Z"/>
    <g class="cls-17">
      <path class="cls-2" d="M214.52,431.37h-.11s-.07,0-.07,0h-.04s-.11.03-.11.03l-.1.02-.1.03-.11.03-.2.06-.2.07-.2.07-.19.08-.19.08-.19.09-.18.09-.04.02-.13.07-.17.1-.17.1-.17.11-.17.11-.16.11-.16.11-.16.11-.15.11-.15.11-.15.11-.15.12-.02.02-.25.21-.27.23-.25.22-.23.21-.07.06-.08.06.03-.02-.08.06-.08.06h.02s-.09.04-.09.04l-.08.05-.08.05-.09.04-.09.05-.09.04-.09.04-.1.04-.2.08-.21.08-.26.1-.16.14-.13.54h-.09s-.14.26-.14.26l.25.14.09-.04.4.38.21.03.27-.06.24-.05.24-.06.13-.03.13-.03.13-.04.13-.04.13-.04.13-.05.13-.05.13-.06.13-.06.13-.07.13-.07.12-.07.28-.17.28-.16.28-.16.27-.15.02-.02.14-.08.15-.08.15-.08.15-.08.15-.07.15-.07.15-.07.15-.07.15-.06.15-.06.15-.05.11-.04h.03s.14-.07.14-.07l.14-.05.14-.04.14-.04.13-.03.13-.03.13-.03h.06s.06-.02.06-.02h.06s.06-.01.06-.01h.02s.03-.02.03-.02l.06-.02.06-.02.06-.02.06-.02.07-.02h-.03s.05-.01.05-.01h.05s-.03-.01-.03-.01h0s.05-.01.05-.01h.05s-.02-.02-.02-.02h.05s.06-.02.06-.02h-.03s.11-.02.11-.02h.12s-.04-.02-.04-.02h.12s.1-.01.1-.01h.03s.08,0,.08,0h.11s.12,0,.12,0h.12s.12.02.12.02l.12.02.13.02.13.02.13.03.1.02h.03s.13.06.13.06l.26.1.52.21.26.1.27.1.13.05.13.05.13.04.13.04.59.18h.01s.56.21.56.21l1.13.42.56.21.56.21.28.1.28.1.28.1.28.1.28.09.29.09.29.09.19.06.09.03.29.09.29.08.29.08.3.08.3.08.3.07.3.07.31.07.31.06.31.06.32.05.32.05.3-.21-.21-.3-.31-.06-.31-.06-.3-.07-.3-.07-.3-.08-.29-.08-.29-.08-.29-.09-.29-.09-.28-.09-.28-.1-.28-.1-.09-.03-.19-.07-.28-.1-.28-.1-.27-.11-.27-.11-.27-.11-.27-.11-.27-.11-.54-.23-.54-.24-1.1-.49-.55-.24h-.01s-.55-.28-.55-.28l-.11-.06-.11-.06-.11-.06-.11-.06-.23-.14-.23-.14-.47-.3-.25-.15-.13-.08-.03-.02-.09-.07-.12-.09-.13-.09-.13-.09-.13-.08-.14-.08-.14-.08-.14-.08-.15-.08-.11-.05-.04-.02-.16-.07-.17-.06-.17-.06-.17-.05-.1-.02-.09-.02-.09-.02-.09-.02h0s-.1-.01-.1-.01h-.1s-.11-.01-.11-.01h-.11s-.11,0-.11,0h-.11Z"/>
    </g>
    <path class="cls-19" d="M213.69,359.74h0s3.2-30.66,4.28-40.85c.92-8.76-2.55-50.97-14.2-41.96-13.41,10.37-20.12,22.61-15.65,43.09,1.59,7.28,6.53,35.07,8.48,46.13-4.05,7.61-3.9,17.31,0,23.97,0,0,11.04,35.06,12,36.33,1.55,2.06,5.93.37,5.93.37,1.41-.73-.84-66.63-.84-67.09Z"/>
    <path class="cls-19" d="M187.75,359.15h0s9.1-29.44,12.13-39.22c2.61-8.41,7.43-50.56-5.72-44.11-15.13,7.43-24.08,18.06-23.69,39.09.12,6.75-.34,30.52-.6,43.34-5.88,7.35-8.07,18.96-5.49,26.49,0,0,9.12,40.69,9.79,42.33,1.85,4.54,6.91.89,7.82-1.34l5.77-66.58Z"/>
    <path class="cls-8" d="M181.5,292.79l.07.09h0s-.02,0-.02,0h-.01s-.01-.02-.01-.02h0s0,0,0,0v-.02s0,0,0,0v-.02s0,.02,0,.02v-.02s0,.02,0,.02h0s-.01.02-.01.02h0s-.01.02-.01.02h0s-.02.03-.02.03h0s-.05.07-.05.07l-.06.08-.06.07v.02s-.06.1-.06.1l-.12.21-.12.2-.1.17-.04.07-.03.06-.09.17-.09.17-.09.17-.1.17-.2.34-.1.17-.06.09-.04.08-.1.18-.09.18-.09.18-.04.09-.04.09-.04.1-.04.1-.04.1-.03.1-.03.1-.03.1-.03.1-.03.1-.13.57-.13.56-.13.56-.13.56-.12.56-.12.56-.06.28-.06.28-.05.28-.05.28-.05.28-.05.28-.05.28-.05.28-.04.28-.04.29-.04.29-.04.29-.03.29-.03.29-.03.29-.03.29-.02.29-.02.29-.02.29v.29s-.05.91-.05.91l-.03.91-.03.91-.02.91v.53s-.02.38-.02.38v.91s-.02.91-.02.91v.91s0,.91,0,.91v.91s0,.91,0,.91v.91s.01,1.82.01,1.82v1.81s.02,1.81.02,1.81v1.81s0,.91,0,.91v.91s0,.87,0,.87v.04s0,.91,0,.91v.91s0,.91,0,.91v.91s-.02.91-.02.91v.91s-.03.91-.03.91l-.02.91-.03.91-.02.64-.02.64-.02.81v.46s-.04,1.27-.04,1.27l-.03,1.26-.02.63-.02.63-.02.62-.02.62-.03.62-.03.62-.03.62-.04.62-.04.62-.02.31-.03.31-.03.31-.03.31-.03.31-.03.31-.02.16v.14s-.05.31-.05.31l-.04.31-.04.31-.04.31-.04.31-.04.31-.05.31-.05.31-.05.31-.05.31-.05.31-.06.31-.06.31-.06.31-.06.31-.07.31-.07.31-.07.31-.08.3-.08.31-.08.31-.08.3-.09.31-.1.33-.1.33-.1.32-.1.32-.1.32-.1.32-.21.65-.22.65-.22.64-.23.64-.23.64-.23.64-.23.64-.42,1.16-.04.12-.23.64-.23.64-.23.64-.22.65-.22.65-.22.65-.21.65-.1.33-.1.33-.1.33-.1.33-.1.33-.1.33-.09.33-.09.33-.09.33-.09.33-.09.33-.08.34-.08.34-.08.34-.07.34-.07.34-.07.34-.07.34-.06.34-.06.34-.06.34-.05.35-.05.35-.05.35-.04.35-.04.35-.06.59-.05.58-.05.58-.04.58-.03.46v.12s-.04.58-.04.58l-.03.57-.02.57-.02.57v.57s-.02.57-.02.57v.57s0,.57,0,.57v.57s.02.56.02.56l.02.56.02.56.02.56.03.56.03.56.04.56.04.56.04.56.05.55.05.55.06.55.06.55.06.55.07.55.07.55.07.55.08.55.08.55.08.55.09.55.09.55.09.55.08.48v.07s.11.55.11.55l.1.55.1.55.11.55.11.54.11.55.12.54.12.54.12.54.12.55.12.54.12.55.13.55.13.55.13.55.13.55.13.55.14.55.28,1.1.28,1.1.29,1.1.29,1.1.04.17.04.17.04.17.04.17.04.17.04.17.03.14v.03s.05.17.05.17l.07.35.07.35.06.36.06.36.05.36.05.36.05.36.04.36.04.36.04.37.03.37.03.37.03.37.03.37.03.43.03.31.13,1.47.06.73.03.37.03.37.04.36.04.36.04.36.04.36.12.11.1-.13-.02-.36-.02-.36v-.36s-.02-.36-.02-.36v-.36s-.01-.37-.01-.37v-.74s0-1.48,0-1.48v-.31s0-.43,0-.43v-.37s-.02-.37-.02-.37v-.37s-.03-.37-.03-.37l-.02-.37-.02-.37-.02-.37-.03-.37-.03-.37-.03-.37-.04-.37-.04-.37-.05-.37-.05-.37-.03-.18v-.03s-.03-.15-.03-.15l-.04-.18-.04-.18-.04-.18-.04-.18-.04-.18-.04-.18-.28-1.11-.28-1.1-.27-1.1-.27-1.1-.13-.55-.13-.55-.13-.54-.13-.54-.12-.54-.12-.54-.12-.54-.12-.54-.12-.54-.11-.54-.11-.54-.11-.54-.11-.54-.11-.54-.1-.54-.1-.54-.1-.54-.09-.54v-.07s-.09-.47-.09-.47l-.09-.54-.09-.54-.08-.54-.08-.54-.08-.54-.07-.54-.07-.54-.07-.54-.06-.54-.06-.54-.06-.55-.05-.55-.05-.55-.04-.55-.04-.55-.04-.55-.03-.55-.03-.55-.02-.55-.02-.55-.02-.55v-.55s-.02-.55-.02-.55v-.56s0-.56,0-.56v-.56s.02-.56.02-.56l.02-.56.02-.56.03-.56.03-.56.04-.57v-.12s.04-.45.04-.45l.05-.57.05-.57.06-.57.06-.57.04-.34.04-.34.05-.34.05-.33.05-.33.06-.33.06-.33.06-.33.07-.33.07-.33.07-.33.08-.33.08-.33.08-.33.08-.33.09-.33.09-.33.09-.32.09-.32.09-.32.1-.32.1-.32.1-.32.1-.32.1-.32.1-.32.21-.64.22-.64.22-.64.23-.64.23-.64.23-.64.24-.64.05-.12.43-1.16.24-.64.24-.64.23-.64.23-.65.23-.65.23-.65.22-.65.11-.33.11-.33.11-.33.1-.33.1-.33.1-.33.09-.32.09-.32.09-.32.08-.32.08-.32.08-.32.07-.32.07-.32.07-.32.07-.32.06-.32.06-.32.06-.32.06-.32.05-.32.05-.32.05-.32.05-.32.05-.32.04-.31.04-.32.04-.31.04-.32.02-.15.02-.17.03-.32.03-.32.03-.32.03-.32.02-.32.02-.32.04-.63.04-.63.03-.63.03-.63.02-.63.02-.63.02-.63.02-.63v-.63s.04-1.26.04-1.26l.02-1.27v-.46s.02-.81.02-.81v-.63s.03-.64.03-.64l.02-.91.02-.92v-.91s.02-.91.02-.91v-.91s0-.91,0-.91v-.91s-.01-.91-.01-.91v-.91s-.01-.04-.01-.04l-.02-.87-.02-.91-.02-.91-.05-1.82-.06-1.81-.06-1.81-.05-1.81-.02-.91-.02-.91-.02-.91-.02-.91v-.91s-.03-.91-.03-.91v-.91s0-.38,0-.38v-.52s0-.91,0-.91v-.91s.01-.91.01-.91v-.91s.02-.29.02-.29v-.29s.02-.28.02-.28l.02-.28.02-.28.02-.28.02-.28.03-.28.03-.28.03-.28.03-.28.04-.28.04-.28.04-.28.04-.28.04-.28.05-.28.05-.28.05-.28.05-.28.1-.56.11-.56.11-.56.12-.56.12-.56.12-.56.02-.09.02-.09.02-.09.03-.09.03-.09.03-.09.03-.09.04-.09.04-.09.04-.09.08-.17.09-.17.09-.17.04-.08.05-.1.09-.18.18-.35.09-.18.09-.18.08-.18.08-.18.02-.05.03-.07.09-.18.11-.21.11-.22.05-.11v-.02s.03-.09.03-.09l.02-.11.02-.1v-.04s.01-.04.01-.04v-.04s0-.04,0-.04v-.04s-.02-.02-.02-.02h0s0-.02,0-.02h0s0-.01,0-.01h0s0-.02,0-.02h0s0,0,0,0h0s-.02,0-.02,0h-.02s-.09.07-.09.07Z"/>
    <path class="cls-8" d="M205.5,298.86h-.01s-.01-.02-.01-.02h0s0-.01,0-.01h0s0,0,0,0h0s0,0,0,0v.02s0-.01,0-.01v.03s0,0,0,0v.04s-.01,0-.01,0l-.02.04-.02.04h0s-.06.09-.06.09l-.07.1-.08.11h0s-.06.13-.06.13l-.14.27-.13.26-.06.12-.05.11-.04.09-.02.05v.04s-.05.16-.05.16h0s-.03.15-.03.15l-.06.31-.05.31-.05.31-.05.32v.03s-.03.29-.03.29l-.03.32-.02.32-.02.32-.02.32-.02.32-.02.32-.03.63-.03.62v.31s-.02.31-.02.31l-.02.63v.63s-.03.63-.03.63v.63s-.03.63-.03.63l-.02.59v.04s-.01.32-.01.32v.32s-.02.32-.02.32l-.02.31-.02.31-.02.31-.02.31-.03.31-.03.31-.03.31-.03.31-.04.3-.04.3-.05.3-.04.21-.02.09-.05.3-.06.3-.07.3-.02.1-.02.11-.02.11v.11s-.03.11-.03.11v.11s-.03.21-.03.21l-.02.21-.02.21-.02.2-.02.2-.02.19v.09s-.03.09-.03.09l-.02.09-.02.09-.02.08-.02.08-.02.08-.02.08-.03.07-.03.07h0s-.03.07-.03.07l-.03.06-.03.06-.04.06-.03.04-.03.04-.03.04-.03.03-.03.04h.01s-.03.02-.03.02l-.03.03h.01s-.04.02-.04.02l-.04.03h.01s-.04.02-.04.02l-.04.03h.01s-.04.01-.04.01l-.04.02h.01s-.04.01-.04.01l-.04.02h.02s-.04.01-.04.01l-.04.02h.01s-.04.01-.04.01h-.04s.01,0,.01,0h-.04s-.04.02-.04.02h-.04s.02,0,.02,0l-.09.02h-.08s-.09.02-.09.02h-.09s-.09.01-.09.01h-.04s-.06,0-.06,0h-.1s-.1,0-.1,0h-.1s-.44-.02-.44-.02h-.12s-.12,0-.12,0h-.12s-.12,0-.12,0h-.12s-.12.02-.12.02h-.12s-.12.03-.12.03l-.21.04-.21.03-.19.03h-.02s-.21.03-.21.03l-.21.03-.22.03-.44.05-.89.1-.45.05-.23.03-.23.03-.22.03-.22.03-.22.04h-.08s-.14.04-.14.04l-.22.05-.22.05-.22.06-.22.06-.21.06-.21.07-.21.07-.1.04-.1.04-.1.04-.1.04-.1.04-.1.04-.1.05-.1.05-.1.05-.1.05-.04.11.11.04.1-.04.1-.04.1-.04.1-.04.1-.03.1-.03.1-.03.1-.03.1-.03.1-.03.21-.05.21-.04.21-.04.21-.03.22-.03.22-.02.22-.02h.14s.08-.02.08-.02l.22-.02.22-.02h.22s.22-.03.22-.03h.22s.45-.03.45-.03l.89-.03.44-.02h.22s.22-.02.22-.02h.22s.02-.02.02-.02l.2-.02.22-.02.21-.02h.1s.09-.01.09-.01h.1s.1,0,.1,0h.1s.1.01.1.01h.1s.11.02.11.02l.44.05h.11s.11.02.11.02h.12s.07.01.07.01h.04s.12,0,.12,0h.12s.12-.01.12-.01h.12s.12-.03.12-.03h.06s.06-.03.06-.03l.06-.02.06-.02.06-.02.06-.02.06-.03.06-.03.06-.03.06-.03.06-.04.06-.04.06-.04.06-.04.06-.05.06-.05.05-.05.05-.05.05-.06.05-.06.05-.06.05-.07.07-.1.06-.1.06-.1.05-.1h0s.04-.11.04-.11l.04-.11.03-.11.03-.11.03-.11.02-.11.02-.11.02-.11.02-.11.02-.11.02-.21.02-.21.02-.21.02-.2.02-.2.02-.19v-.09s.02-.09.02-.09v-.09s.03-.09.03-.09l.02-.08.02-.08.07-.3.06-.31.06-.31.02-.1.03-.22.04-.31.04-.32.04-.32.03-.32.03-.32.02-.32.02-.32.02-.32.02-.32v-.32s.02-.32.02-.32v-.32s.01-.32.01-.32v-.32s0-.04,0-.04v-.6s0-.64,0-.64v-.64s0-.63,0-.63v-.63s0-.62,0-.62v-.31s0-.31,0-.31v-.62s.02-.63.02-.63v-.31s.02-.32.02-.32v-.32s.02-.32.02-.32l.02-.31.02-.31.02-.28v-.03s.02-.31.02-.31l.02-.31.02-.31.03-.3v-.14s.02-.01.02-.01l.02-.15h0s0-.01,0-.01v.02s0-.03,0-.03h0s.02-.07.02-.07l.03-.09.04-.11.1-.26.11-.28.05-.14h0s.03-.14.03-.14l.02-.13.02-.12v-.05s.01-.05.01-.05v-.04s0-.04,0-.04v-.04s-.01-.02-.01-.02v-.02s-.02-.01-.02-.01h0s0-.02,0-.02h0s-.01-.01-.01-.01h-.01s0,0,0,0h-.01s-.01,0-.01,0h0s-.1.07-.1.07h0s.07.1.07.1h-.01Z"/>
    <path class="cls-8" d="M198.68,321.39l-.08.15v.1s-.03.22-.03.22v.04s0,.25,0,.25v.25s.01.25.01.25v.25s.03.25.03.25l.02.25.02.25.03.25.03.25.03.25.03.25.03.25.04.24.03.21v.04s.1.48.1.48l.09.48.09.48.09.48.09.48.04.24.04.24.04.24.04.24.03.24.03.24.08.62.08.62.08.62.08.62.08.62.09.62.09.62.09.62.18,1.23.19,1.23.19,1.23.15,1.01.03.22.19,1.22.19,1.22.19,1.22.18,1.22.09.61.09.61.09.61.09.61.08.61.08.61.03.21.05.41.08.61.07.57.06.57.06.57.06.57.05.57.05.57h0s.04.57.04.57l.04.57.04.57.03.57.03.57.03.57.02.57v.21s.02.37.02.37l.02.57.02.57v.57s.03.57.03.57v.57s.02.57.02.57v.57s.01.57.01.57v.57s0,.58,0,.58v1.15s0,1.15,0,1.15v1.15s-.02,1.15-.02,1.15l-.02,2.31v1.15s-.01.2-.01.2v.96s0,1.15,0,1.15v.58s0,.58,0,.58v.58s0,.58,0,.58v.58s.02.58.02.58v.58s.03.57.03.57l.02.58.02.58.02.58.03.58.03.58.03.58.03.57.04.57.04.57.05.57.05.57.05.57.06.57.06.57.05.41.05.42.06.42.06.42.07.42.07.42.05.3.02.12.08.42.09.42.09.42.09.42.09.42.1.42.1.42.1.42.11.42.11.42.11.42.11.42.11.42.11.42.12.42.23.83.24.82.24.81.24.8.23.79.11.38.11.39.11.39.11.39.11.4.1.4.1.4.1.41.1.41.1.41.1.41.09.42.09.42.09.42.03.14.06.28.09.43.09.43.08.43.08.43.08.43.08.43.08.44.07.44.07.44.07.44.07.44.07.44.06.44.06.44.06.44.06.44.06.44.06.44.05.44.05.44.05.44.05.44.05.44.04.44.04.44.04.44.04.44h0s.04.44.04.44l.04.44.04.44.04.44.03.44.03.43.03.43.03.43.02.43.02.43.02.43.02.37v.06s.02.42.02.42v.42s.03.42.03.42v.41s.02.41.02.41v.41s0,.41,0,.41v.4s0,.4,0,.4v.4s.18.2.18.2l.19-.19.02-.4v-.4s.03-.41.03-.41v-.41s.02-.41.02-.41v-.42s.01-.42.01-.42v-.42s0-.42,0-.42v-.43s0-.06,0-.06v-.37s0-.43,0-.43v-.43s-.02-.43-.02-.43v-.43s-.03-.44-.03-.44l-.02-.44-.02-.44-.02-.44-.02-.44-.02-.44-.03-.44h0s-.03-.44-.03-.44l-.04-.45-.04-.45-.04-.45-.04-.45-.04-.45-.05-.45-.05-.45-.05-.45-.05-.45-.05-.45-.06-.45-.06-.45-.06-.45-.06-.45-.06-.45-.07-.44-.07-.44-.07-.44-.07-.44-.07-.44-.07-.44-.08-.44-.08-.44-.08-.43-.08-.43-.08-.43-.06-.29-.03-.14-.09-.43-.09-.42-.09-.42-.09-.42-.1-.42-.1-.41-.1-.41-.1-.41-.1-.41-.1-.4-.11-.4-.11-.4-.11-.39-.11-.39-.23-.79-.23-.8-.23-.81-.23-.82-.23-.83-.11-.41-.11-.42-.11-.42-.11-.42-.11-.42-.1-.42-.1-.42-.1-.42-.1-.42-.09-.42-.09-.42-.09-.42-.08-.42-.08-.42-.08-.42-.02-.12-.05-.29-.07-.41-.06-.41-.06-.41-.06-.41-.05-.41-.05-.4-.06-.56-.05-.57-.05-.57-.04-.57-.04-.57-.04-.57-.03-.57-.03-.57-.03-.57-.02-.57-.02-.57-.02-.57v-.57s-.03-.57-.03-.57v-.57s-.02-.57-.02-.57v-.57s0-.57,0-.57v-.57s0-.57,0-.57v-.57s0-.57,0-.57v-1.15s.02-.95.02-.95v-.2s.02-1.15.02-1.15l.03-2.31v-1.15s.03-1.16.03-1.16v-1.16s.02-1.16.02-1.16v-.58s0-.58,0-.58v-.58s0-.58,0-.58v-.58s-.01-.58-.01-.58v-.58s-.02-.58-.02-.58l-.02-.58-.02-.58v-.37s-.02-.21-.02-.21l-.03-.58-.03-.58-.03-.58-.04-.58-.04-.58-.04-.58-.05-.57h0s-.05-.59-.05-.59l-.06-.58-.06-.58-.07-.58-.07-.58-.08-.58-.09-.62-.06-.41-.03-.21-.09-.61-.1-.62-.1-.61-.1-.61-.1-.61-.1-.61-.21-1.22-.21-1.22-.21-1.22-.21-1.22-.04-.22-.18-1-.22-1.22-.21-1.22-.21-1.22-.1-.61-.1-.61-.1-.61-.1-.61-.1-.61-.09-.61-.09-.61-.09-.61-.04-.25-.04-.25-.04-.25-.04-.24-.05-.24-.05-.24-.1-.48-.1-.48-.1-.48-.1-.48-.1-.48v-.04s-.05-.2-.05-.2l-.05-.24-.05-.24-.05-.24-.05-.24-.04-.24-.04-.24-.04-.24-.03-.24-.03-.24-.03-.24-.02-.24-.02-.24v-.24s-.01-.04-.01-.04l-.02-.21v-.1s-.08-.15-.08-.15l-.08-.09-.09.08Z"/>
    <path class="cls-8" d="M203.26,319.43h-.33s-.33,0-.33,0l-.65.02-.64.02h-.41s-.22.03-.22.03l-.59.04h-.04s-.31.02-.31.02l-.31.02h-.08s-.24.05-.24.05l-.17.03-.14.06-.07.07.07.07.14.07.17.04.24.05h.08s.31.03.31.03l.32.02h.04s.6.03.6.03h.23s.41,0,.41,0h.64s.64,0,.64,0h.32s.32,0,.32,0h.32s.29.02.29.02h.03s.32,0,.32,0h.32s.32.03.32.03l.32.02.32.02h.04s.28.03.28.03l.32.03.32.03.32.04h.06s.1.02.1.02l.16.02.16.02.15.02h.01s.16.02.16.02l.16.02.17.02.16.02h.08s.09.02.09.02l.17.03.17.03.17.03.17.03.17.04.29-.16-.17-.29-.16-.06-.17-.05-.17-.05-.17-.05-.17-.05-.09-.03-.08-.02-.17-.04-.17-.04-.17-.04-.17-.04h-.01s-.16-.04-.16-.04l-.17-.03-.17-.03-.1-.02h-.06s-.34-.05-.34-.05l-.33-.04-.33-.03-.29-.02h-.04s-.33-.02-.33-.02l-.33-.02h-.33s-.33-.02-.33-.02h-.33s-.03,0-.03,0h-.3s-.33,0-.33,0Z"/>
    <path class="cls-5" d="M209.32,230.22c3.09-9.54,15.46-21.08,23.43-31.45,7.97-10.36,18.39-25.79,24.41-30.74,4.15-3.41,5.94-.5,3.03,7.58-2.78,7.74-10.11,20.47-13.27,25.62-7.98,13.01-21.43,34.65-29.35,36.17-3.67.71-8.25-7.18-8.25-7.18Z"/>
    <path class="cls-5" d="M276.66,233.88c1.31-.13,8.3-.18,8.25.67-.02.26-1.85.28-2.52.34-1.64.16-3.51.24-5.11.62-.44.11-1.03.09-1.42.18-.06.02-.57,0-.52.07.07.11.7.04.82.04.73.04,1.44.02,2.15.02,2.1,0,4.27-.06,6.3.38.8.17,1.84.35,2.25.97.18.27-9.46.53-9.94.65-.03,0-.6,0-.53.11.04.06.54.12.61.13.57.12,2.86.62,4.97.99,1,.17,4.68,1.16,4.81,1.69.09.38-.45.38-.66.43-.74.17-5.91-.68-7.7-.64-.61.01-1.24-.12-1.85-.13-.32,0-.96-.03-.96-.03,0,0,.6.17.91.24.6.13,1.19.26,1.79.39,1.83.39,3.47,1.1,5.12,1.81.44.19,1.03.46,1.15.95.09.37-4.98-.63-6.75-.79-2.06-.19-4.11-.3-6.18-.09-1.33.13-4.48,2.1-11.01,5.32-2.45,1.21-2.33-7.11-2.06-7.3.44-.31,4.22-3.74,4.7-4.02.3-.55.61-1.18.79-1.75.93-2.85.16-5.3,1.65-5.46.07,0,.27-.35.7.73.03.07.4.81.61,1.31,0,0,.51,2.02.64,3.42v.06c2.97-.71,5.97-1.03,8.99-1.32ZM265.77,230.09"/>
    <path class="cls-4" d="M215.27,272.79h-.06s-.06,0-.06,0h-.06s-.05.02-.05.02h-.06s-.05.02-.05.02l-.05.02-.05.02-.05.02-.05.02-.05.02-.05.02-.05.03-.05.03-.05.03-.05.03-.05.03-.04.03-.04.04-.04.04-.04.04-.04.04-.04.04-.04.04-.03.04-.03.05-.03.05-.03.05-.03.05-.03.05-.02.05-.02.05-.02.05-.02.05-.02.05-.02.05v.06s-.08.33-.08.33l-.04.19-.03.2-.02.11v.11s-.03.12-.03.12v.12s-.02.12-.02.12v.13s0,.13,0,.13v.14s.02.17.02.17l.02.16.02.15.02.14.05.24.04.22.02.09v.09s.03.07.03.07v.06s.01.05.01.05v.04s0,.03,0,.03h0s0,.02,0,.02h0s0,.03,0,.03v.02s-.02.02-.02.02v.02s-.02.02-.02.02h0s-.05-.03-.05-.03l-.05-.02-.05-.02-.05-.02h-.05s-.05-.03-.05-.03h-.06s-.05-.02-.05-.02h-.06s-.06-.01-.06-.01h-.06s-.06,0-.06,0h-.06s-.06,0-.06,0h-.06s-.06.01-.06.01h-.05s-.06.02-.06.02h-.05s-.05.03-.05.03l-.05.02-.05.02-.05.02-.05.02-.05.02-.05.03-.05.03-.05.03-.05.03-.04.03-.04.03-.04.04-.04.04-.04.04-.04.04-.04.04-.04.04-.03.04-.03.05-.03.05-.03.05-.03.05-.02.05-.02.05-.02.05-.02.05-.02.05-.02.05v.06s-.03.05-.03.05v.06s-.02.06-.02.06v.06s-.01.06-.01.06v.06s0,.06,0,.06v.06s0,.06,0,.06v.05s.01.05.01.05v.05s.02.05.02.05v.05s.03.05.03.05l.02.05.02.05.02.05.02.05.03.05.03.05.03.05.03.05.03.04.03.04.04.04.04.04.04.04.04.04.04.04.04.04.04.03.03.02h.01s.03.04.03.04l.05.04.13.12.09.08.1.09.13.1.14.1.1.06.1.06.11.05.12.05.13.05.14.04.15.03.16.02h.1s.05,0,.05,0h.05s.04,0,.04,0h.04s.05,0,.05,0h.05s.05-.01.05-.01h.03s.05-.01.05-.01h.04s.04-.02.04-.02h.04s.05-.02.05-.02l.05-.02.05-.02.05-.02h.02s.05-.03.05-.03l.05-.02.05-.02.05-.03h.02s.04-.03.04-.03l.04-.02.04-.02.04-.03h.02s.04-.04.04-.04l.04-.03.04-.03.06-.05.08-.09.08-.09.09-.11.07-.09.04-.05.12-.15.09-.11.09-.12.09-.12.1-.13.1-.14.1-.15.1-.16.09-.16.05-.09.04-.09.04-.09.04-.1.04-.1.04-.1.03-.11.03-.11.03-.12.02-.12.02-.13v-.12s.02-.11.02-.11v-.11s0-.18,0-.18v-.18s-.02-.17-.02-.17l-.02-.16-.02-.15-.02-.14-.02-.13-.04-.22-.04-.2v-.08s-.02-.07-.02-.07v-.06s0-.05,0-.05v-.02s0-.03,0-.03v-.04s0-.04,0-.04v-.05s.01-.05.01-.05v-.05s.01-.05.01-.05l.02-.13.03-.14.06-.31v-.06s.02-.06.02-.06v-.06s.01-.06.01-.06v-.06s0-.06,0-.06v-.06s0-.06,0-.06v-.06s-.01-.06-.01-.06v-.05s-.02-.05-.02-.05v-.05s-.03-.05-.03-.05l-.02-.05-.02-.05-.02-.05-.02-.05-.03-.05-.03-.05-.03-.05-.03-.05-.03-.04-.03-.04-.03-.04-.04-.04-.04-.04-.04-.04-.04-.04-.04-.04-.04-.04-.05-.03-.05-.03-.05-.03-.05-.03-.05-.03-.05-.03-.05-.02-.05-.02-.05-.02-.05-.02-.05-.02h-.05s-.06-.02-.06-.02h-.05s-.06-.02-.06-.02h-.06s-.06,0-.06,0h-.06s-.06,0-.06,0Z"/>
    <path class="cls-15" d="M206.95,221.78s2.75,6.35-2.01,7.69c-11.33,3.19-11.53-10.21-11.53-10.21-2.67.48-7.57,1.79-9.07,2.62-2.89,1.59-5.29,4.15-6,7.46-.31,1.44-.23,2.89-.17,4.33.82,19.37-.84,39.11-4.93,58.51-.18.85-.32,1.86.25,2.4.29.28.72.36,1.12.42,15.3,2.47,28.65,9.69,43.99,4.35-.2-4.25-.31-8.79-.37-13.46-.13-10.51-1.12-43.64-.75-43.8,4.56-1.97,16.51-17.3,16.51-17.3,0,0-6.51-9.14-13.11-13.91-.31-.22-13.94,10.9-13.94,10.9Z"/>
    <path class="cls-5" d="M256.71,160.35c.12,2.27-4.85,7.84-3.46,15.52.05.26,2.13,3.19,4.47,2.1,1.37-.63,4.82-3.53,7.47-8.3,1.58-2.84,4.69-7.22,6.13-9.14.42-.56.73-1.27,1.14-1.83.06-.09.36-.53.25-.67-.12-.15-.55.1-.66.14-.68.22-1.27.52-1.77,1.05-1.03,1.08-2.02,2.25-3.07,3.3-.35.35-.59.8-.94,1.15-.19.19-.54.61-.54.61,0,0,.36-.61.54-.91.45-.72.87-1.48,1.33-2.19.96-1.48,1.78-3.09,2.91-4.39.25-.29,1.04-1.22.84-1.7-.12-.28-.53.03-.63.06-.62.2-1.16.76-1.59,1.25-1.11,1.27-2.16,2.63-3.1,4.08-.3.46-.68.91-.93,1.4-.15.3-.49.89-.49.89,0,0,.09-.25.14-.38.09-.26.23-.47.32-.73.28-.75.63-1.52.98-2.22.77-1.53,1.26-3.3,2.09-4.78.16-.28.7-1.24.55-1.61-.09-.22-.53.14-.58.19-.48.48-.96.95-1.34,1.53-.93,1.44-3.77,5.98-3.97,6.52-.12.32-.44.91-.44.91,0,0,.15-.52.24-.77.16-.43,1.79-4.9,2.32-6.32.14-.38.92-2.48.28-2.5-.28-.01-.57.51-.72.71-.58.74-.87,1.65-1.34,2.48-1.25,2.23-3.34,5.8-4.91,8.11.3-1.19,1.11-3.53-.69-5.03-.35-.29-.98-.53-.87,1.46Z"/>
    <path class="cls-19" d="M198.43,217c-1.27,2.81-8.25-2.18-10.57-3.44-2.32-1.26-4.6-3.25-4.71-6.36-.02-.64.04-1.32-.18-1.87-.24-.59-.76-.91-1.24-1.25-3.03-2.16-3.39-6.97-3.26-11.39.03-1.04.18-2.14.67-3.12.59-1.17,1.6-2.03,2.62-2.72,6.88-4.65,13.67-2.65,20.6-7.15,2.03-1.32,3.86-3.08,5.88-4.41,2.02-1.34,4.38-2.24,6.33-1.56,1.95.68,3.11,3.43,1.9,5.71-.78,1.47-2.22,2.32-3.56,3.07,2.78.36,4.17,3.94,3.4,7.24-.77,3.3-3.2,6.15-5.85,8.02-1.98,1.39-4.18,2.4-5.86,4.29-2.88,3.25-4.36,10.92-6.18,14.95Z"/>
    <path class="cls-13" d="M201,227.94c-6.76-1.55-7.21-8.19-7.21-8.19l3.14-9.57c.6-2.83,3.99-4.09,7.28-2.9,3.29,1.19,3.86,5.03,3.26,7.86l-1.39,10.49c-.6,2.83-3.28,2.72-5.08,2.31Z"/>
    <path class="cls-13" d="M214.51,214.16c-1.84,7.54-12.26,4.13-16.09,2.84-5.71-1.92-18.1-16.65-12.54-25.16,5.56-8.51,18.33-8.61,23.46-5.66,5.13,2.95,6.46,22.67,5.17,27.98Z"/>
    <path class="cls-13" d="M194.19,205.88c1.8,1.9,2.36,4.16,1.39,4.99-3.25,2.77-5.51,2.98-7.31,1.08-1.8-1.9-1.45-4.22.19-5.89,1.63-1.67,3.93-2.07,5.73-.17"/>
    <path class="cls-19" d="M209.61,184.56c-2.55-1.64-6.07-1.77-9.25-1.19-2.89.53-5.78,1.48-8.6,2.49-2.66.95-5.52,2.1-7.86,3.9-4.4,3.4-1.83,9.36.5,12.65,1.2,1.69.47,4.06,2.56,4.54.9.21,2.32-.47,3.21-.93,1.07-.54,1.69,6.42,4.25,5.94.3-.06,1.79-3.02,1.53-6.87-.19-2.81-2.01-5.68-2.33-7.35-.17-.84-.22-2.43.36-2.64.69-.68,1.64-.51,2.42-.38.89.15,1.74.53,2.61.75,1.51.39,3.06.66,4.65.65,2.75,0,6.44-1.02,8.14-3.78.91-1.48.95-2.92.54-4.23.04-.1.04-.22-.01-.33-.23-.52-.49-.98-.8-1.4-.45-.72-.99-1.39-1.53-1.98-.13-.14-.36,0-.41.16.13.08.25.17.37.26l.81,1.29c.45.5.83,1.07,1.11,1.71.01.04.03.07.04.11l.02.05.04.06c-.03-.07-.06-.15-.09-.22-.39-1.12-1.09-2.04-1.81-2.92.54.41,1.03.91,1.46,1.49.34.55.62,1.13.81,1.74-.05.14-.16.26-.28.32-.03-.16-.08-.31-.12-.46l-1.16-1.87c-.18-.2-.38-.39-.59-.57-.19-.27-.38-.53-.56-.79-.04-.06-.05-.13-.03-.19Z"/>
    <path class="cls-5" d="M183.45,224.04c-2.37,2.09-11.3,7.32-.05,23.35,8.83,12.59,44.74,31.97,85.05-5.36,0,0,4.63-3.53,1.88-5.2-5.26-3.19-27.8,14.3-44.74,14.11-12.79-.15-21.24-5.74-27.97-16.1-5.36-8.25-11.8-12.89-14.17-10.8Z"/>
    <path class="cls-8" d="M209.59,242.15s-9.79-5.89-16.87-18.15c-2.95-5.11-10.66-4.33-14.36,4.31-6.84,15.99,14.65,30.69,14.79,30.55,6.47-.61,16.44-16.71,16.44-16.71Z"/>
    <path class="cls-6" d="M114.39,371.85c4.15-3.93,8.27-7.76,11.46-12.43,9.21-13.46,2.63-27.73-9.31-37.46-7.08-5.76-16.8-10.4-17.52-20.1-1.47-19.75,28.31-28.33,29.86-46.99,2.44-29.25-26.88-28.96-42.72-46.11-17.31-18.74-2.77-57.8-37.1-63.39-4.05-.66-8.27-.92-12.37-.4-29.58,3.77-22.19,43.83-16,60.42,4.09,10.97,11.11,21.76,21.19,29.02,8.46,6.09,20.66,10.62,24.28,20.66,5.97,16.58-15.23,22.78-12.8,38.2,2.65,16.84,28.78,16.8,36.06,31.47,9.43,19.01-4.69,43.77,16.64,58.39l8.34-11.28Z"/>
    <g class="cls-22">
      <path class="cls-8" d="M42.64,170.3c-.24-14.12,2.14-28.15,3.79-42.19l.15-1.29c-.01-.82-.39-1.4-1.43-1.39-1.49.43-1.27,2.92-1.52,4.96-1.61,13.14-3.66,26.47-3.5,39.6-7.51-6.98-16.92-11.8-26.51-15.78,0,0-.27-.32-1.07-.29-1.48.2-2.34,1.56,2.04,3.43,9.38,4.03,18.56,8.98,25.65,16.25.24,5.36.9,10.69,2.15,15.95.44,1.84.95,3.66,1.54,5.46-7.33-4.19-15.99-5.48-24.04-7.34-6.12-1.39-12.27-2.67-18.43-3.8,0,0-.24-.03-.44,0-.47.11-.57.22-.75.43-.56.66-.24,1.81.73,2.05,9.86,1.81,19.63,3.98,29.35,6.36,4.88,1.22,9.81,2.72,14,5.53,0,0,.39.2.8.19,2.7,6.94,6.54,13.43,11.38,19.11-8.56-3-17.41-5.35-26.51-5.89-6.37-.38-12.77-.31-19.15-.76,0,0-.15,0-.32.02-.85.21-.89.54-.99.92-.31,1.16,1.33,1.59,2.8,1.69,9.69.54,19.45.08,28.95,2.06,6.5,1.36,12.75,3.66,18.95,6.01,4.59,4.67,9.5,9.02,14.23,13.54.43.42.86.84,1.29,1.27-7.11-3.06-14.61-5.13-22.38-5.11-8.08.09-16.06,1.98-24.06,2.91-1.3.23-1.65,2.6.29,2.5,9.09-1.05,18.11-3.49,27.18-2.77,8.01.64,15.75,3.48,23,7.13,2.11,2.98,3.5,6.32,3.2,10.24-.09,1.18-.3,2.32-.6,3.43-7.17-5.56-16.75-7.86-25.88-7.84-1.71.02-4.19.23-4.19.23-1.44.36-1.77,2.65,1.31,2.4,9.97-.7,20.42,1.5,27.92,7.75-2.12,5.37-6.06,10.18-8.8,15.48-4.06-5.26-9.46-9.39-15.22-12.7-.47-.25-.39-.17-.69-.17-1.42.12-1.57,1.72.88,3.2,5.29,3.22,10.22,7.21,13.82,12.27-1.02,2.46-1.71,5.06-1.78,7.88-.05,1.95.24,3.86.79,5.7-5.38-2.87-10.32-6.48-14.37-11.1-.28-.28.08-.4-.97-.39-1.1.09-1.6,1.24-.48,2.58,4.43,5.21,10.36,8.96,16.49,12.08.33.15.46.17.63.15,2.27,4.78,6.1,9.11,9.97,12.83-3.1-.37-6.98-.56-10-1.09-7.53-1.31-14.91-3.42-22.18-5.8,0,0-.18-.07-.52-.06-1.18.18-1.68,1.9-.27,2.45,7.37,2.42,14.94,4.56,22.53,5.89,4.63.81,9.38.89,13.96,1.9,4.99,4.64,9.89,9.4,13.47,15.15.46.74.91,1.49,1.33,2.26-9.76-4.23-21-4.06-30.83-6.62,0,0-.18-.06-.5-.03-.41.08-.51.17-.68.33-.64.61-.39,1.83.55,2.13.51.13.51.13,1.02.26,10.6,2.54,21.96,2.18,31.64,7.29,0,0,.25.11.56.12,2.91,6.37,4.49,13.35,4.34,20.34-7.27-4.52-15.26-7.76-22.64-12.1,0,0-.16-.18-.72-.17-1.26.13-1.81,1.61.18,2.77,7.55,4.34,15.7,7.63,23.01,12.38-.25,2.81-.79,5.6-1.65,8.35,0,0-.13,1.02.53,1.44,1.43.91,2.29-1.78,2.86-4.38,3.57-16.13-3.06-33.67-14.61-45.56-.18-.18-.35-.36-.53-.54.5-.99.89-2.54,1.32-3.74.39-1.04.8-2.07,1.19-3.11q.09-.25.18-.49c2.39-6.93,4.79-13.88,7.72-20.63,0,0,.34-1.77-1.22-1.76-.74.07-1.1.79-1.36,1.39-3.44,8.05-6.38,16.49-9.13,24.48-.21.62-.39,1.39-.54,2.05-3.45-3.28-7.16-6.37-10.36-9.74,1.02-1.31,2.01-4.4,3.48-6.59,3.66-5.48,7.92-10.7,13.43-14.23,0,0,.38-.29.5-.62.3-.81-.14-1.75-1.29-1.69-.42.05-.74.31-1.08.52-4.94,3.3-8.92,7.85-12.34,12.71-1.76,2.5-3.52,5.1-4.37,8.05-2.63-3.06-4.77-6.4-5.9-10.33-1.12-3.87-.38-7.8,1.18-11.67.01-.02.03-.04.04-.05.07-.05.13-.1.2-.16,3.15-2.55,7-3.91,10.77-5.22,5.58-1.94,11.34-3.54,17.25-3.88,0,0,.7-.12.99-.59.5-.8.32-1.94-1.14-1.93-6.15.35-12.14,2-17.93,4.01-2.74.95-5.52,1.96-8.07,3.36,1.49-2.77,3.2-5.49,4.73-8.11.99-1.71,1.9-3.51,2.63-5.35.14,0,.28-.03.41-.09.09-.04.18-.09.26-.14.33-.02.71-.11,1.11-.32,3.47-1.81,6.67-4.13,9.3-6.95.65-.78.09-2.14-1.04-2.09-2.7.28-5.19,4.15-9.01,6.52,1.07-3.86,1.24-7.8-.19-11.38-.37-.92-.81-1.81-1.31-2.67.43-.55.81-1.43,1.12-2.45,2.77-9.13,6.37-18.25,12.64-25.21,0,0,.5-2.17-1.06-2.09-.84.12-.85.46-1.12.75-6.53,7.46-10.31,16.96-13.12,26.68-2.77-3.71-6.51-6.86-9.8-9.98-2.69-2.53-5.39-5.06-8-7.67.79-.98.91-1.22,1.32-1.77,7.33-9.61,13.69-19.69,21.37-30.13,0,0,.5-2.01-1.08-2-1,.1-.83.33-1.75,1.62-4.26,5.98-7.82,12.42-12.17,18.29-3.06,4.13-6.42,8.05-9.47,12.18-4.92-5.12-9.34-10.61-12.41-17.09-.73-1.55-1.4-3.12-2.01-4.72,12.09-9.69,24.19-20.16,39.8-23.61,0,0,.8-.3.95-.94.18-.79-.49-1.58-1.36-1.54,0,0-4.84,1.15-8.33,2.51-12.11,4.71-22.1,13.16-31.96,21.08-2.26-6.73-3.49-13.82-3.87-20.93,0-.07,0-.13-.01-.2.24-.25.33-.61.19-1.03,13.87-8.91,28.99-16.52,45.24-17.1,0,0,.63-.1.93-.46.67-.81.03-2.09-1.4-2.04-16.19.69-31.44,8.16-45.09,16.82Z"/>
    </g>
    <path class="cls-8" d="M117.17,370.97c5.19-1.36,9.91-5.49,13.6-9.54,13.3-14.6,13.73-35.07,8.65-53.99-3.22-11.98-9.73-26.62-6.84-39.44,3.38-15.02,21.85-25.58,22.09-40.9.26-16.58-12.73-27.12-8.6-45.31.97-4.3,2.45-8.46,4.01-12.53,6.07-15.8,21.92-54.7-6.5-57.45-22.9-2.21-36.32,31.5-42.29,50.8-10.77,34.8-15.71,73.03-11.51,109.79,2.39,20.92,8.61,40.88,11.38,61.69,2.15,16.16,1.28,32.57,5.84,48.34,1.93,6.67,4.38,14.57,10.46,17.97l-.27-29.43Z"/>
    <g class="cls-20">
      <path class="cls-4" d="M137.48,121.55c-1.59-7.18-4.77-14.17-9.89-20.01,0,0-.15-.46-1.05-.43-.93.12-1.45,1.2-.91,2,.23.29-.01-.03.93,1.09,4.8,5.8,7.41,12.93,8.94,20.6-.2.19-.51.55-.54.98-2.25,3.99-4.24,8.12-5.96,12.36-4.79-11.06-14.83-19.51-24.78-27.52,0,0-.22-.3-.89-.27-1.05.14-1.5,1.51-.68,2.23,10.24,8.25,20.92,17,25.01,29.05-1.97,5.35-3.53,10.85-4.67,16.45-.26.37-.29.69-.19.95-.21,1.1-.41,2.2-.6,3.3-6.7-9.02-16.58-15.32-25.86-21.93-.43-.28-.42-.25-.85-.23-1.2.17-1.93,1.33.27,2.9,9.41,6.66,19.38,13.07,25.62,22.46,0,0,.12.14.3.28-.98,7.29-1.26,14.69-.83,22.05-5.05-7.72-11.87-14.13-20.4-17.44-4.27-1.65-8.71-2.75-13.12-4.08,0,0-.18-.07-.52-.04-.42.08-.53.16-.7.33-.63.59-.42,1.79.5,2.12,2.21.67,4.43,1.29,6.64,1.93,8.48,2.51,16.55,6.7,22.1,13.65,2.31,2.89,4.25,6.04,5.99,9.3,0,0,.03.04.08.1,1.18,7.43,4.21,14.55,6.34,21.74-10.42-12.03-27.38-18.2-42.81-25.33-.28-.11-.37-.13-.71-.1-1.13.24-1.36,1.84-.34,2.39.71.33,1.42.65,2.12.98,16.36,7.41,34.36,14.1,43.24,28.29,0,0,.02.03.06.08.43,2.26.69,4.53.7,6.84-.12.2-.2.44-.17.7.02.17.08.33.16.46,0,.05,0,.11,0,.16-.17,4.93-2.62,9.29-5.42,13.52-3.28-12.38-15.24-20.45-25.22-26.84-2.14-1.36-4.29-2.71-6.43-4.07-1.26-.81-3.06-2-3.06-2-.3-.14-.34-.16-.74-.14-1.07.19-1.45,1.63-.55,2.29,13.77,9.21,30.59,16.95,33.83,32.57,0,0,.04.13.13.3-.17.36-.22.74-.12,1.04-1.24,1.81-2.46,3.62-3.51,5.47-1.73,3.05-3.18,6.26-4.33,9.59-6.76-12.04-20.11-18.95-30.7-26.72,0,0,0-.25-.81-.24-1.07.11-1.56,1.55-.68,2.27,11.62,8.53,25.23,15.34,31.11,28.11-1.64,5.78-2.41,11.82-2.26,17.81-7.51-10.62-18.29-18.72-30.93-22.96,0,0-.17-.07-.5-.06-1.16.15-1.7,1.74-.41,2.4.4.16.05,0,1.57.54,12.76,4.62,23.63,13.54,30.64,25.23.69,6.12,2.18,12.14,3.92,18.1-.1-.09-.21-.19-.31-.28-8.81-8.15-20.45-12.41-31.31-16.48,0,0-.18-.08-.52-.08-1.19.13-1.76,1.83-.36,2.43,1.17.44,2.33.87,3.5,1.31,2.95,1.12,5.9,2.27,8.79,3.53,8.1,3.52,16.05,8.04,21.78,14.9,0,0,.02.02.07.05,1.81,5.84,3.72,11.64,5.2,17.43-.27-.29-.54-.57-.82-.85-.77-.76-1.59-1.48-2.44-2.16-8.25-6.52-19.03-8.3-28.27-12.78,0,0,0-.13-.62-.13-.72.08-.8.3-.97.54-.6.88.44,1.84,1.64,2.39,11.82,5.4,25.69,7.63,32.56,18.54,0,0,.09.11.24.23.76,3.84,1.26,7.69,1.34,11.55-6.86-8.27-19.03-11-29.06-14.18,0,0-.16-.06-.47-.06-1.2.15-1.71,1.93-.28,2.45,10.66,3.37,22.59,5.38,29.07,14.97,0,0,.3.35.7.49-.18,3.75-.79,7.52-1.96,11.31-.4,1.3-1.02,3.06-1.02,3.06.08,2.4,2.1,1.51,2.78-.39,1.48-4.19,2.23-8.5,2.45-12.87.25-.16.5-.39.73-.67,7.84-9.32,20.74-12.95,33.31-16.26,0,0,.49-.18.72-.5.53-.76.25-1.98-1.1-1.97-1.47.16-2.37.6-3.59.93-11.03,3.05-22.55,6.88-30,14.77-.07-4.72-.7-9.49-1.64-14.23.09-.11.18-.23.27-.35,7.51-10.34,19.38-16.98,31.71-20.33,0,0,.69-.25.87-.85.23-.78-.1-1.63-1.28-1.62-.73.08-.73.17-1.46.38-11.96,3.48-23.24,9.9-30.8,19.53-1.44-6.33-3.36-12.56-5.18-18.52.18-.22.36-.5.55-.85,5.6-10.42,17.38-16.34,28.46-19.75,0,0,.64-.24.82-.81.27-.8-.13-1.72-1.33-1.65-.65.1-.64.17-1.28.38-3.55,1.15-7.02,2.54-10.35,4.21-7.13,3.59-13.82,8.5-17.85,15.23-.15-.5-.3-1-.45-1.49-1.87-6.31-3.43-12.78-4.11-19.27.13-.13.26-.27.4-.43,8.2-9.36,20.4-14.57,32.6-16.54,0,0,.42-.09.67-.34.74-.71.72-2.17-.95-2.16,0,0-3.04.5-5.1.96-10.52,2.38-20.52,7.36-27.89,15.08-.21-3.94-.05-7.87.6-11.75.26-1.54.59-3.06,1-4.55.29-.14.61-.34.97-.63,8.13-6.39,19.63-6.19,28.99-3.65,0,0,.89.11,1.32-.45.52-.67.3-1.67-.67-1.98-.48-.13-.48-.13-.96-.25-3.8-.94-7.67-1.46-11.61-1.46-5.92.05-11.92,1.37-16.84,4.54,2.12-6.01,5.27-11.68,8.86-17.25,10.23-4.79,22.39-4.72,33.36-2.05,0,0,.88.08,1.29-.45.5-.65.18-1.73-.7-1.99-.54-.13-.54-.13-1.09-.26-4.73-1.06-9.58-1.63-14.42-1.61-5.45.05-10.93.84-16.07,2.67,2.35-3.89,4.12-8.18,4.44-12.9.62-.27,1.24-.54,1.85-.82,2.62-1.16,5.23-2.34,7.84-3.49.85-.37,1.7-.74,2.56-1.11,9.41-4.01,19.23-7.15,29.48-7.55,0,0,.69-.12.99-.55.57-.84-.09-2.01-1.47-1.95-14.44.65-28.14,6.97-41.23,12.71,0-.19-.02-.37-.04-.56-.47-6.05-2.4-11.83-4.36-17.64.09-.1.17-.21.26-.34,1.97-2.95,5.51-4.42,8.92-6.19,8.63-4.44,18.3-7.62,27.73-5.74,0,0,.65.05,1.03-.25.88-.69.69-2.02-1.56-2.41-1.92-.32-3.87-.48-5.81-.48-9.22.09-18.06,4.09-26.14,8.54-1.88,1.05-4.06,2.19-5.46,3.79-1.57-4.76-2.97-9.59-3.44-14.64-.15-1.65-.26-3.3-.34-4.95-.04-.96-.07-1.91-.09-2.87.14-.11.28-.24.43-.4,8.04-8.01,21-9.22,32.01-8.18,0,0,.66,0,1.04-.39.65-.69.37-1.94-.8-2.11q-.52-.05-1.05-.09c-2.04-.16-4.07-.23-6.11-.21-9.18.16-18.69,1.99-25.53,7.96.08-6.97.82-13.95,2.19-20.8.07-.04.15-.09.27-.17,15.28-9.52,35.1-10.22,53.5-6.27,0,0,.79.07,1.2-.39.6-.67.44-1.76-.67-2.07-6.87-1.47-13.88-2.2-20.87-2.17-11.37.1-22.94,2.15-32.7,7.7,1.02-4.42,2.31-8.77,3.86-13.02.2-.2.33-.5.33-.9.25-.68.51-1.35.78-2.02,1.51-.36,3.54-1.21,5.45-1.74,14.79-4.14,30.78-2.61,45.98.47,0,0,.98.03,1.35-.61.6-1.07-.91-1.87-2.42-2.17-8.46-1.64-16.94-2.69-25.68-2.67-7.93.06-15.94,1.05-23.42,3.67,1.51-3.5,3.21-6.92,5.08-10.23.23-.1.44-.26.58-.49,7.43-4.66,16.65-5.65,25.4-7.53,0,0,.57.02,1.02-.42.75-.73.61-2.28-1.03-2.15-7.77,1.33-16.11,2.6-23.23,6.04,3.22-5.05,6.87-9.8,10.95-14.16,0,0,.96-2.43-1.28-2.06-1.01.46-.84.65-1.54,1.41-4.02,4.44-7.63,9.23-10.79,14.29Z"/>
    </g>
    <path class="cls-6" d="M149.58,356.11l-10.52,79.89-54.71.14-9.4-81.01,74.63.97Z"/>
  </g>
  <g>
    <path class="cls-6" d="M518.85,179.28c-6.37,1.43-11.31,8.77-12.49,16.02-.85,5.24-.2,10.75-2.22,15.75-2.85,7.04-10.78,7.63-14.08,13.99-1.6,3.09-2,8.51.78,11.08.9.83,4.28,1.47,4.33,2.34.31,5.43-6.85,11.92-2.7,17.4,1.29,1.71,4.46,2.5,6.37,1.62.23-.11,2.49-1.82,2.55-1.78,1.39.89,2.33,4.28,3.33,5.72,3.24,4.66,8.63,9,14.43,8.35,1.82-.2,3.48-.95,5.04-1.92,10.14-6.31,25.58-2.15,29.76-13.68,5.74-15.83-8.18-14.33-4.11-24.84,4.97-12.83-2.51-14.68-3.42-20.9-.81-5.49.29-11.51-1.13-16.86-2.16-8.14-12.13-15.49-26.44-12.28Z"/>
    <path class="cls-6" d="M525.68,275.31s8.2,6.88,9.87,15.96c4.49,24.39-.43,54.47-2.79,69.79-2.36,15.32-.79,52.83,2.03,65.34,0,0-.89,7.82-5.18,2.3-4.29-5.52-22.05-47.82-12.02-69.34,0,0-25.55-50.17-6.57-77.56,4.51-6.51,14.66-6.5,14.66-6.5Z"/>
    <path class="cls-4" d="M563.72,158.07c-.4-.1-3.29-1.9-3.22-2.42.42-2.92.89-5.18-.7-6.37-1.4-1.05-1.34-.4-2-.88-.14-.1.18-.53,1.24-.7,1.42-.22,2.33.8,2.29.73-.81-1.81-3.9-8.09-2.92-8.42.52-.18,3.74,6.91,3.73,6.83-.09-.71-1.02-4.91-1.47-6.46-.44-1.51-.21-1.7-.12-1.85.09-.15.46.43.64.93.57,1.59,2.69,6.53,2.82,7.12.03.12-.65-4.98-.6-6.84.03-1.24.4-2.13.92-.02.37,1.51.45,3.06.65,4.63.09.7.46,1.95.55,2.65.04.31.26-3.1.45-4.28.1-.67.26-1.21.54-1.83.15-.32.62.2.6.78-.04,1.37-.31,3.05.02,4.43.32,1.35.69,5.87.06,7.86-1.44,4.57-3.48,4.12-3.48,4.12Z"/>
    <path class="cls-4" d="M530.11,232.5s5.79,7.55,16.59-22.98l20.69-55.66s-1.99-6.7-5.95-.39c-3.96,6.3-20.55,46.07-26.37,55.36-5.82,9.29-12.01,18.03-4.97,23.67Z"/>
    <path class="cls-8" d="M527.81,234.65c2.06,2.43,6.15,1.61,10.08-1.98.56-.51,3.89-5.51,6.42-11.62l9.98-26.11-10.84-5.14-13.89,25.66s-5.81,14.41-1.75,19.2Z"/>
    <path class="cls-4" d="M522.58,211.62c-4.57-1.54-4.44-5.37-4.44-5.37,0,0-2.85.55-3.85-2.98-.61-2.14,1.07-2.88,1.97-2.96,2.48-.23,4.2,4.95,4.92,4.39,3.34-2.59,1.57-4.79.83-6.59-.68-1.65.95-4.32,3.48-3.68,10.78,2.69,12.27-6.8,13.14-4.18,2.42,7.31-.91,19.03-3.81,23.26,0,0-9.37-.91-12.24-1.88Z"/>
    <path class="cls-4" d="M470.08,297.09c0,.41-2.58,3.19-2.9,3.61-1.22,1.58-1.64,2.34-2.4,4.18-.67,1.62-.05,1.4-.35,2.16-.06.16-.56-.04-.99-1.03-.57-1.32.19-2.45.13-2.4-1.55,1.24-6.85,5.81-7.42,4.94-.3-.46,5.75-5.35,5.67-5.32-.67.26-4.5,2.21-5.89,3.04-1.35.8-1.59.63-1.76.58-.17-.05.3-.56.74-.85,1.4-.95,5.65-4.23,6.18-4.52.11-.06-4.66,1.87-6.46,2.3-1.21.28-2.17.15-.25-.89,1.37-.73,2.85-1.2,4.32-1.79.66-.26,1.78-.93,2.43-1.19.29-.11-3.07.52-4.26.64-.68.07-1.24.05-1.9-.06-.35-.06.05-.65.61-.77,1.34-.3,3.03-.46,4.28-1.13,1.23-.65,2.65-1.25,4.61-3.39.91-.99,5.62,1.91,5.62,1.91Z"/>
    <path class="cls-4" d="M537.45,235.65c-1.94-4.57-8.05-12.99-17.77-12.36-5.16.33-4.61,30.83,2.35,46.82,3.02,6.94,10.58,12.82,12.41,5.47,1.82-7.34,4.95-35.35,3.01-39.93Z"/>
    <path class="cls-4" d="M521.66,206.84s1.24,1.27,1.55,3.19c.36,2.26-.08,6.03-4.16,10.02-3.37,3.29,8.16,7.19,9.97,3.91l2.09-10.75s1.37-5.01-9.45-6.37Z"/>
    <path class="cls-4" d="M533.68,261.19l1.87,9.3s-1.01,20.13-6.3,28.23c-5.29,8.09-5.93,8.2-7.23,3.39-1.3-4.8-2.54-17.7-15.02-21.52,0,0,6.45-6.28,12.6-8.7,3.73-1.47-.89-14.92-.89-14.92l14.97,4.22Z"/>
    <path class="cls-6" d="M510.29,275.61c6.58-4.11,22.52,1.25,22.98,10.5.47,9.26-9.44,62.62-13.73,77.48-4.3,14.86-24.43,36.24-30.71,52.34,0,0-1.89,7.63-5.21,1.53-3.32-6.11,7.91-42.02,21.79-57.78,0,0-31.93-61.07,4.88-84.07Z"/>
    <path class="cls-6" d="M534.48,427.65c-.38-.43-2.69-2.96,1.44-1.24,2.11.88,4.31.96,9.38.87,1.8-.03,4.59-.24,6.77.4,1.51.44,1.98,1.43,2.35,2.34-11.46,3.26-23.84,1.83-25.01,1.48-1.03-2.43.35-2.45-.75-3.46.1-.66,4.25-.59,5.82-.4Z"/>
    <g class="cls-12">
      <path class="cls-21" d="M536.21,430.08c1.2-.43,3.66-1.02,3.66-1.02,4.34-1.52,12.38-.05,14.44.06,1.9-.6,3.68-1.32,5.33-2.13,0,0,.03-.87,1.63-.39.89.37,1.02.58.75,1.1l-1.51,1.17c1.48-.5,2.95-.96,4.45-1.41l1.58-.07-.09.51-3.05,1.42c-9.3,3.51-19.9,5.72-32.24,2.83-9.6-1.59-6.41-3.63-4-3.07.12.03,3.42.77,5.7,1.14.69.14,1.38.26,2.06.36.42-.17.86-.33,1.29-.49ZM549.64,429.51c-.79-.1-1.59-.33-3.06-.49-.78-.08-2.88-.38-4.78.21-1.57.49-3.04.99-4.52,1.64,5.3.51,10.28.04,14.71-1.09-.79-.08-1.58-.18-2.36-.27ZM537.13,430.06l1.25-.34c.2-.09-1.25.34-1.25.34Z"/>
    </g>
    <path class="cls-6" d="M486.33,419.25c.16-.55,1.07-3.85,1.82.55.38,2.25,1.49,4.15,4.27,8.37.99,1.5,2.65,3.74,3.27,5.91.43,1.51-.16,2.43-.73,3.23-8.88-7.92-14.28-19.1-14.61-20.27,1.51-2.16,2.27-1.02,2.53-2.48.61-.27,2.77,3.26,3.44,4.69Z"/>
    <g class="cls-18">
      <path class="cls-21" d="M485.2,422c1.01.78,2.82,2.54,2.82,2.54,3.6,2.84,6.65,10.4,7.66,12.2,1.53,1.28,3.09,2.39,4.65,3.35,0,0,.75-.44,1.2,1.16.16.95.06,1.17-.53,1.22l-1.81-.65c1.21.98,2.39,1.97,3.57,3l.9,1.29-.48.2-2.84-1.81c-7.94-5.96-15.48-13.71-19.61-25.64-3.77-8.94-.34-7.34.47-5.02.04.12,1.17,3.29,2.07,5.41.25.66.52,1.3.8,1.93.37.27.74.54,1.11.83ZM492.85,433.01c-.34-.72-.57-1.51-1.22-2.84-.35-.7-1.22-2.63-2.73-3.91-1.26-1.06-2.46-2.03-3.8-2.93,2.4,4.74,5.46,8.68,8.78,11.81-.35-.71-.69-1.42-1.03-2.13ZM485.71,422.77l.96.87c.18.12-.96-.87-.96-.87Z"/>
    </g>
    <path class="cls-8" d="M534.53,287.75s-6.29-.74-14.04-2.62c-4.38-1.06-10.76-8.09-10.76-8.09,0,0,.74-51.74,14.5-59.2l7.05.38s4.08,2.36,6.83,4.47c1.02.78,5.15,14.47,5.77,18.49,1.17,7.62-8.24,26.72-9.34,46.56Z"/>
    <path class="cls-4" d="M516.43,226.72s-4.14-8.57-20.92,19.08l-31.56,50.22s.59,6.96,5.75,1.6c5.16-5.36,29.48-40.87,37.07-48.77,7.59-7.9,15.42-15.18,9.67-22.14Z"/>
    <path class="cls-8" d="M525.94,219.16c-1.42-2.86-5.58-3.05-10.26-.53-.66.36-5.1,4.4-9.04,9.71l-15.98,22.9,9.28,7.62,19.67-21.52s9.11-12.57,6.33-18.19Z"/>
    <path class="cls-14" d="M634.53,273.15s-.85-25.81-.77-27.7c.31-7.3.34-13.75-3.34-16.58-2.05-1.58-4.56-3.7-7.71-4.8-1.68-.59-9.49,1.42-14.22,2.45-3.84.84-4.08,4.59-3.52,8.3l-.3,32.25c3,6.84,26.12,10.61,29.86,6.08"/>
    <path class="cls-4" d="M607.72,418.16c.38,2.21-.41,5.71.46,8.45.47,1.45-1.81,1.98-2.39,3.39-.81,1.95-5.62-.05-6.12-1.21-.7-1.63,1.95-2.55,3.02-5.98.68-2.16-.16-4.79.73-6.93.91-2.2,3.14-1.31,3.77.67"/>
    <path class="cls-4" d="M640.52,419.01c.39,1.97.17,4.12.71,5.98.83,2.84.35,4.64-.23,5.9-.81,1.74-9.84-.45-10.34-1.49-.7-1.46,2.6-3.26,4.15-5.94,1.01-1.75.53-4.58,1.42-6.49.91-1.96,3.14-1.16,3.77.6"/>
    <path class="cls-3" d="M633.52,424.69s-2.81,4.56-13.9,5.95c-.75.09-1.49.19-2.25.22-1.07.03-1.28.39-1.55,1.22.63.81,4.49,1.24,5.51,1.37,3.6.43,7.42.62,10.91-.39,2.99-.87,6.54.57,9.6-.09.29-.8.71-1.61.77-2.45.09-1.07-.27-2.09-.35-3.15-.08-1.05-1.58-.87-2.34-.46-.65.35-1.11.8-1.9.93-1.06.17-1.98-.23-3.02-.27-.69-.02-1.35.26-1.97.48.7-.69,1.59-1.3,1.91-2.2.05-.14.24-.65.09-.79-.31-.29-1.12-.19-1.53-.37Z"/>
    <g>
      <path class="cls-15" d="M633.52,424.69s-2.81,4.56-13.9,5.95c-.75.09-1.49.19-2.25.22-1.07.03-1.28.39-1.55,1.22.63.81,4.49,1.24,5.51,1.37,3.6.43,7.42.62,10.91-.39,2.99-.87,6.54.57,9.6-.09.29-.8.71-1.61.77-2.45.09-1.07-.27-2.09-.35-3.15-.08-1.05-1.58-.87-2.34-.46-.65.35-1.11.8-1.9.93-1.06.17-1.98-.23-3.02-.27-.69-.02-1.35.26-1.97.48.7-.69,1.59-1.3,1.91-2.2.05-.14.24-.65.09-.79-.31-.29-1.12-.19-1.53-.37Z"/>
      <g class="cls-10">
        <path class="cls-6" d="M634.77,428.44h-.11s-.11,0-.11,0h-.11s-.1.01-.1.01h-.1s-.05.01-.05.01h-.05s-.1.03-.1.03l-.18.04-.18.05-.18.05-.17.06-.17.07-.07.03-.1.04-.16.07-.16.08-.15.08-.15.08-.14.08-.14.08-.14.08-.14.08-.12.08h-.02s-.14.08-.14.08l-.27.15-.52.29-.25.14-.25.13-.12.06-.12.06-.12.06-.12.05-.61.27-.04.02-.57.22-1.2.47-.59.23-.59.23-.3.11-.3.11-.3.11-.3.11-.3.11-.3.1-.3.1-.24.08-.07.02-.31.09-.31.09-.31.09-.31.09-.31.08-.32.08-.32.08-.33.07-.33.07-.33.07-.33.06-.34.06-.22.3.3.21.35-.05.35-.05.34-.06.34-.06.33-.06.33-.07.33-.07.32-.07.32-.07.32-.08.32-.08.31-.08.07-.02.24-.07.31-.09.31-.09.31-.09.31-.09.31-.09.31-.1.31-.1.61-.2.61-.2,1.22-.4.57-.19h.05s.64-.18.64-.18l.14-.04.15-.04.14-.04.15-.05.28-.09.28-.1.56-.2.28-.09.14-.04h.02s.13-.03.13-.03l.14-.03.14-.02.14-.02.13-.02h.13s.13-.02.13-.02h.13s.13,0,.13,0h.07s.05,0,.05,0h.12s.12.02.12.02l.11.02.11.02.11.03h.06s-.02.01-.02.01h.03s.03.01.03.01h.06s-.02.01-.02.01h.06s.07.03.07.03l.07.02.07.02.07.02.07.02h0s.06,0,.06,0h.07s.07.01.07.01l.15.02.15.03.15.03.15.04.15.04.15.04.15.05.15.05h0s.16.05.16.05l.16.05.16.06.16.06.16.06.16.07.16.07.16.07.16.07.16.08.16.08.16.08h0s.31.16.31.16l.31.16.3.16.3.16.13.07.14.07.14.06.14.06.14.05.14.05.14.05.14.04.14.04.13.03.13.03.13.03.26.05.26.05.3.05.23-.03.4-.39.1.04.24-.14-.14-.24h-.1s-.16-.55-.16-.55l-.18-.14-.29-.1-.23-.08-.23-.08-.11-.04-.11-.04-.1-.04-.1-.04-.1-.05-.09-.05-.09-.05-.09-.05-.08-.05-.09-.06h.03s-.09-.05-.09-.05l-.08-.06-.26-.2-.28-.21-.29-.22-.3-.22h0s-.16-.11-.16-.11l-.16-.11-.16-.11-.17-.11-.17-.11-.17-.11-.18-.11-.18-.11-.18-.1-.18-.1-.19-.1-.19-.09h0s-.19-.09-.19-.09l-.2-.08-.2-.08-.2-.07-.21-.07-.21-.06-.21-.06-.21-.05-.11-.02-.11-.02-.1-.02h-.01s-.11,0-.11,0h-.11Z"/>
      </g>
    </g>
    <path class="cls-3" d="M601.09,424.08s-3.22,4.43-12.97,6.17c-.66.12-1.31.24-1.98.29-.69.05-.98.5-1.18,1.27.6.72,4.82.69,5.73.76,3.21.24,6.37-.2,9.64-.81,2.73-.52,5.81.24,8.49-.48.22-.74.55-1.49.58-2.27.03-.98-.33-1.9-.45-2.86-.12-.95-1.43-.73-2.09-.32-.56.34-.95.78-1.64.93-.93.2-1.76-.13-2.68-.12-.61,0-1.19.29-1.72.52.59-.66,1.35-1.25,1.6-2.09.04-.13.18-.6.04-.72-.29-.25-1-.12-1.37-.27Z"/>
    <g>
      <path class="cls-15" d="M601.09,424.08s-3.22,4.43-12.97,6.17c-.66.12-1.31.24-1.98.29-.69.05-.98.5-1.18,1.27.6.72,4.82.69,5.73.76,3.21.24,6.37-.2,9.64-.81,2.73-.52,5.81.24,8.49-.48.22-.74.55-1.49.58-2.27.03-.98-.33-1.9-.45-2.86-.12-.95-1.43-.73-2.09-.32-.56.34-.95.78-1.64.93-.93.2-1.76-.13-2.68-.12-.61,0-1.19.29-1.72.52.59-.66,1.35-1.25,1.6-2.09.04-.13.18-.6.04-.72-.29-.25-1-.12-1.37-.27Z"/>
      <g class="cls-11">
        <path class="cls-6" d="M602.47,427.33h-.11s-.1.01-.1.01h-.1s-.11.02-.11.02l-.17.03h-.03s-.14.04-.14.04l-.17.05-.17.06-.16.06-.16.06-.15.07-.06.03-.09.05-.14.08-.14.08-.13.08-.13.08-.13.08-.12.08-.12.09-.12.09-.1.07-.14.09-.23.15-.45.29-.21.14-.21.13-.1.06-.1.06-.1.06-.1.06-.52.27-.03.02-.5.23-1.04.48-.51.24-.51.23-.51.23-.26.11-.26.11-.26.11-.26.11-.26.1-.2.08-.06.02-.26.1-.27.1-.27.09-.27.09-.27.09-.28.09-.28.08-.28.08-.28.08-.29.07-.29.07-.3.07-.21.31.31.2.31-.06.3-.06.3-.06.3-.07.29-.07.29-.07.29-.08.28-.08.28-.08.28-.08.28-.09.27-.09.07-.02.21-.07.27-.09.27-.09.27-.09.27-.1.27-.1.53-.2.53-.2.53-.21,1.07-.42.51-.19h.03s.56-.19.56-.19l.12-.04.13-.04.13-.05.13-.05.25-.1.25-.1.49-.2.24-.09.14-.05.11-.03.12-.03.12-.02.12-.02.12-.02h.12s.11-.02.11-.02h.11s.11,0,.11,0h.07s.04,0,.04,0h.1s.1.02.1.02h.12s-.04.02-.04.02l.11.02.11.02h-.05s.09.02.09.02h.02s.11.02.11.02h-.04s.07.01.07.01h.06s.07.03.07.03h-.02s.06.02.06.02l.07.02h.05s.12,0,.12,0h.12s.12.03.12.03l.13.02.13.02.13.03.13.03.14.04.14.04h0s.14.04.14.04l.14.04.14.04.14.05.14.05.14.05.14.05.14.06.14.06.14.06.14.06.14.06h0s.28.13.28.13l.28.13.27.13.27.13.12.06.13.06.13.05.13.05.13.04.13.04.13.04.13.03.12.03.12.03.12.02.12.02.23.04.23.03.27.04.2-.05.36-.41.09.03.24-.15-.15-.24h-.09s-.15-.53-.15-.53l-.16-.12-.26-.08-.21-.07-.2-.07-.09-.03-.09-.03-.09-.04-.09-.04-.08-.04-.08-.04-.08-.04-.09-.05h.02s-.08-.04-.08-.04l-.08-.05h.03s-.08-.04-.08-.04l-.07-.05-.23-.17-.25-.18-.27-.19-.27-.19h0s-.15-.1-.15-.1l-.15-.09-.15-.09-.15-.09-.15-.09-.16-.09-.16-.09-.16-.09-.17-.09-.17-.09-.17-.08-.17-.08h0s-.18-.07-.18-.07l-.18-.07-.18-.06-.19-.06-.19-.06-.19-.05-.2-.05-.2-.04-.2-.03h-.07s-.12,0-.12,0Z"/>
      </g>
    </g>
    <path class="cls-15" d="M603.31,359.06h0s-3.09-29.54-4.12-39.36c-.89-8.44,2.46-49.11,13.68-40.42,12.92,10,19.39,21.79,15.08,41.52-1.53,7.01-6.29,33.79-8.17,44.45,3.9,7.33,3.76,16.67,0,23.09,0,0-10.64,33.78-11.56,35.01-1.49,1.99-5.72.35-5.72.35-1.36-.7.81-64.2.81-64.64Z"/>
    <path class="cls-15" d="M628.3,358.49h0s-8.77-28.36-11.69-37.79c-2.51-8.1-7.16-48.72,5.51-42.5,14.58,7.16,23.2,17.4,22.83,37.66-.12,6.51.33,29.41.58,41.76,5.67,7.08,7.77,18.27,5.29,25.52,0,0-8.79,39.21-9.43,40.79-1.78,4.38-6.66.86-7.53-1.29l-5.56-64.15Z"/>
    <path class="cls-4" d="M583.92,147.27c-.13-1.26-1.45-7.87-2.24-7.65-.24.07.1,1.8.17,2.44.17,1.58.46,3.36.41,4.95-.01.44.12.99.11,1.38,0,.06.12.54.04.51-.12-.05-.17-.66-.2-.76-.18-.68-.3-1.35-.44-2.03-.41-1.98-.78-4.04-1.59-5.87-.32-.72-.69-1.67-1.35-1.93-.29-.11,1.34,9.02,1.33,9.51,0,.03.11.56,0,.52-.07-.03-.22-.49-.24-.55-.23-.52-1.15-2.58-1.9-4.5-.36-.91-2.01-4.19-2.53-4.21-.37-.01-.28.5-.28.7-.02.73,1.8,5.44,2.11,7.14.11.58.36,1.15.49,1.72.07.3.21.9.21.9,0,0-.28-.53-.4-.81-.24-.54-.47-1.08-.71-1.61-.73-1.65-1.72-3.06-2.71-4.48-.26-.38-.64-.88-1.12-.9-.37-.01,1.56,4.58,2.06,6.21.58,1.9,1.08,3.82,1.29,5.81.14,1.28-1.11,4.63-2.88,11.43-.66,2.54,7.16.82,7.29.53.21-.47,2.71-4.71,2.88-5.22.46-.39,1-.8,1.5-1.09,2.51-1.43,4.97-1.18,4.83-2.62,0-.07.28-.33-.83-.52-.07-.01-.84-.22-1.36-.32,0,0-2.01-.09-3.36.06h-.06c.09-2.93-.19-5.82-.5-8.73ZM589.62,156.81"/>
    <path class="cls-4" d="M611.37,233.31c-1.51,2.64-4.71,12.08-22.02,4.6-13.6-5.88-38.89-35.99-11.51-81.3,0,0,2.43-5.05,4.54-2.79,4.04,4.35-8.08,29.01-4.59,44.97,2.63,12.04,9.56,18.92,20.64,23.26,8.83,3.45,14.46,8.62,12.95,11.27Z"/>
    <path class="cls-6" d="M589.16,215.47s9.05,5.4,12.42,7.31c4.33,2.45,8.25,3.35,8.25,3.35l-7.79,20.73s-3.95-2.42-9.7-5.67c-6.52-3.68-14.03-10.18-14-10.31,1.95-7.78,10.82-15.43,10.82-15.43Z"/>
    <path class="cls-7" d="M634.22,294.48h-.02s-.01,0-.01,0h0s0,0,0,0h0s0,.01,0,.01h0s0,.02,0,.02h0s0,.03,0,.03h0s0,.03,0,.03v.03s0,.04,0,.04v.04s0,.04,0,.04v.04s.02.09.02.09l.02.1.02.09v.02s.06.11.06.11l.11.22.1.2.09.17.03.06.02.05.07.17.08.18.09.17.09.17.18.34.09.17.05.09.04.08.09.17.08.17.08.17.04.08.03.08.03.08.03.08.03.08.03.08.03.08.02.09.02.09.02.09.12.54.12.54.11.54.11.54.11.54.1.54.1.54.05.27.04.27.04.27.04.27.04.27.04.27.03.27.03.27.03.27.03.27.03.27.02.27.02.27.02.27v.27s.03.27.03.27v.28s.02.28.02.28v.87s.02.87.02.87v.87s0,.87,0,.87v.51s0,.37,0,.37v.87s-.02.87-.02.87v.87s-.03.87-.03.87l-.02.87-.02.87-.02.87-.05,1.75-.05,1.75-.05,1.75-.05,1.75-.02.88-.02.88-.02.84v.04s-.01.88-.01.88v.88s-.01.88-.01.88v.88s0,.88,0,.88v.88s.02.88.02.88v.88s.04.88.04.88v.61s.03.61.03.61v.78s.02.44.02.44l.02,1.22.02,1.22v.61s.03.61.03.61l.02.61.02.61.02.61.03.61.03.61.04.61.04.61.05.61.03.3.03.3.03.3.03.3.02.16.02.14.04.3.04.3.04.3.04.3.04.3.05.3.05.3.05.31.05.3.05.3.06.3.06.3.06.3.06.3.07.3.07.31.07.3.07.3.08.31.08.3.08.31.09.31.09.3.1.32.1.32.1.32.1.32.1.32.1.32.21.63.22.63.22.63.22.62.23.62.23.62.23.62.41,1.12.04.12.23.62.22.62.22.62.22.61.22.62.21.62.21.62.1.31.1.31.1.31.1.31.09.31.09.31.09.31.09.31.09.31.08.31.08.31.08.31.08.32.08.31.07.32.07.32.07.32.06.32.06.32.06.32.06.32.05.32.05.32.05.32.04.32.04.33.06.55.06.55.05.55.05.55.03.43v.11s.04.55.04.55l.03.54.02.54.02.54.02.54v.54s.02.54.02.54v.54s0,.54,0,.54v.53s-.02.53-.02.53l-.02.53-.02.53-.02.53-.03.53-.03.53-.04.53-.04.53-.04.53-.05.53-.05.53-.05.52-.06.52-.06.52-.07.52-.07.52-.07.52-.07.52-.08.52-.08.52-.08.52-.09.52-.08.46v.07s-.1.52-.1.52l-.09.52-.1.52-.1.52-.1.52-.1.52-.11.52-.11.52-.11.52-.11.52-.11.52-.12.52-.12.52-.12.52-.12.52-.12.53-.13.53-.13.53-.26,1.05-.26,1.06-.27,1.06-.27,1.07-.04.17-.04.17-.04.18-.04.17-.04.17-.03.18-.03.14v.03s-.03.18-.03.18l-.05.35-.05.36-.04.36-.04.36-.03.36-.03.36-.02.36-.02.36-.02.36-.02.36v.36s-.03.36-.03.36v.36s-.02.36-.02.36v.42s0,.3,0,.3v1.43s0,.71,0,.71v.35s-.01.35-.01.35v.35s-.02.35-.02.35l-.02.35-.02.35.1.13.12-.11.04-.35.04-.35.04-.35.03-.35.03-.35.03-.35.06-.71.12-1.42.03-.3.03-.41.03-.36.03-.35.03-.35.03-.35.04-.35.04-.35.04-.35.04-.35.05-.35.05-.35.06-.34.06-.34.07-.34.07-.34.04-.17v-.03s.03-.14.03-.14l.04-.17.04-.17.04-.17.04-.17.04-.17.04-.17.28-1.06.28-1.06.27-1.06.27-1.06.13-.53.13-.53.13-.53.13-.53.12-.53.12-.53.12-.53.12-.53.12-.52.11-.53.11-.52.11-.52.11-.53.11-.52.1-.53.1-.53.1-.53.1-.53v-.07s.09-.46.09-.46l.09-.53.09-.53.08-.53.08-.53.08-.53.08-.53.07-.53.07-.53.07-.53.06-.53.06-.53.05-.53.05-.53.05-.53.04-.54.04-.54.04-.54.03-.54.03-.54.02-.54.02-.54v-.54s.02-.54.02-.54v-.54s0-.55,0-.55v-.55s-.01-.55-.01-.55v-.55s-.03-.55-.03-.55l-.02-.55-.03-.55-.03-.56v-.11s-.04-.44-.04-.44l-.04-.56-.05-.56-.05-.56-.06-.56-.04-.34-.04-.34-.05-.34-.05-.33-.05-.33-.05-.33-.06-.33-.06-.33-.06-.33-.07-.33-.07-.33-.07-.33-.07-.33-.08-.32-.08-.32-.08-.32-.08-.32-.09-.32-.09-.32-.09-.32-.09-.32-.09-.32-.1-.32-.1-.32-.1-.32-.1-.32-.2-.63-.21-.63-.21-.62-.22-.62-.22-.62-.22-.62-.22-.62-.04-.12-.4-1.12-.22-.62-.22-.62-.22-.62-.22-.62-.21-.62-.21-.62-.21-.62-.1-.31-.1-.31-.1-.31-.1-.31-.1-.31-.09-.31-.08-.29-.08-.29-.08-.29-.08-.29-.07-.29-.07-.29-.07-.29-.06-.29-.06-.29-.06-.29-.06-.3-.06-.29-.05-.3-.05-.29-.05-.3-.05-.3-.04-.3-.04-.3-.04-.3-.04-.3-.04-.3-.03-.3-.03-.3v-.14s-.03-.16-.03-.16l-.03-.3-.03-.3-.03-.3-.03-.3-.05-.6-.04-.6-.04-.6-.03-.6-.03-.6-.03-.6-.02-.6-.02-.6-.02-.6-.02-.6-.03-1.22-.03-1.22v-.45s-.03-.78-.03-.78l-.02-.61-.02-.61-.03-.88-.02-.88-.02-.87v-.88s-.02-.87-.02-.87v-.87s0-.87,0-.87v-.87s0-.87,0-.87v-.04s0-.84,0-.84v-.87s0-.87,0-.87v-1.75s.02-1.75.02-1.75v-1.75s.02-1.75.02-1.75v-.87s0-.88,0-.88v-.88s0-.88,0-.88v-.88s-.01-.88-.01-.88v-.88s-.02-.37-.02-.37v-.51s-.03-.88-.03-.88l-.02-.88-.03-.88-.03-.88v-.28s-.03-.28-.03-.28l-.02-.28-.02-.28-.02-.28-.03-.28-.03-.28-.03-.28-.03-.28-.04-.28-.04-.28-.04-.27-.04-.27-.05-.27-.05-.27-.05-.27-.05-.27-.05-.27-.11-.54-.11-.54-.12-.54-.12-.54-.12-.54-.13-.54-.13-.55-.02-.1-.03-.1-.03-.1-.03-.1-.03-.1-.04-.09-.04-.09-.04-.09-.04-.09-.04-.09-.09-.18-.09-.17-.09-.17-.04-.08-.05-.09-.1-.17-.2-.33-.1-.16-.09-.16-.09-.16-.08-.17-.03-.05-.04-.07-.1-.17-.11-.2-.12-.2-.05-.1v-.02s-.07-.07-.07-.07l-.06-.08-.05-.07h0s-.02-.03-.02-.03h0s-.02-.02-.02-.02h0s-.01-.02-.01-.02h0s0-.01,0-.01v.02s0-.02,0-.02h0s-.01.03-.01.03h-.01s-.01.02-.01.02h-.02s0,0,0,0l.07-.09-.09-.07h-.02Z"/>
    <path class="cls-7" d="M611.47,301.89l.02.16.02.13.03.29.02.3.02.3v.3s.01.03.01.03l.02.27.02.3v.3s.03.3.03.3v.31s.02.3.02.3v.3s.02.6.02.6v.6s.01.3.01.3v.3s0,.6,0,.6v.61s0,.61,0,.61v.61s0,.61,0,.61v.58s0,.04,0,.04v.31s0,.31,0,.31v.31s.02.31.02.31v.31s.03.31.03.31l.02.31.02.31.02.31.03.31.03.31.03.31.04.3.04.3.03.21.02.09.05.3.06.3.06.29.02.08v.08s.03.08.03.08v.08s.03.18.03.18l.02.18.02.19v.2s.03.2.03.2l.02.21.02.21v.11s.03.11.03.11l.02.11.02.11.02.11.03.11.03.11.03.1.04.1.04.1h0s.05.1.05.1l.05.1.06.1.06.09.05.06.05.06.05.06.05.06.05.05.05.05.05.05.05.04.06.04.06.04.06.04.06.03.06.03.06.03.06.03.06.03.06.02.06.02.06.02.06.02.12.03.12.02h.12s.12.02.12.02h.12s.11,0,.11,0h.04s.07,0,.07,0h.11s.11-.02.11-.02h.11s.42-.06.42-.06h.1s.1-.02.1-.02h.1s.1-.01.1-.01h.1s.09,0,.09,0h.09s.1.01.1.01l.2.02.21.02h.19s.02.02.02.02h.21s.21.02.21.02h.21s.43.03.43.03l.86.03.43.02h.21s.21.02.21.02h.21s.21.03.21.03l.21.02h.07s.14.02.14.02l.21.02.21.02.21.03.21.03.2.04.2.04.2.05.1.03.1.03.1.03.1.03.1.03.1.03.1.04.1.04.1.04.09.04.11-.04-.04-.11-.09-.05-.09-.05-.09-.05-.1-.04-.1-.04-.1-.04-.1-.04-.1-.04-.1-.04-.1-.04-.2-.07-.2-.06-.21-.06-.21-.06-.21-.05-.21-.05-.21-.05-.14-.03h-.07s-.22-.05-.22-.05l-.22-.03-.22-.03-.22-.03-.22-.03-.43-.05-.86-.09-.42-.05-.21-.03-.21-.03-.2-.03h-.02s-.18-.03-.18-.03l-.2-.03-.2-.03-.11-.02h-.12s-.12-.02-.12-.02h-.12s-.12,0-.12,0h-.11s-.11,0-.11,0h-.11s-.43.02-.43.02h-.1s-.1,0-.1,0h-.1s-.06,0-.06,0h-.03s-.09,0-.09,0h-.08s-.08-.02-.08-.02h-.08s-.07-.03-.07-.03l-.08-.02h.02s-.04,0-.04,0h-.04s.01,0,.01,0h-.04s-.04-.03-.04-.03h.01s-.04-.01-.04-.01l-.04-.02h.01s-.04-.01-.04-.01l-.04-.02h.01s-.04-.01-.04-.01l-.03-.02h.01s-.03-.02-.03-.02l-.03-.03h.01s-.03-.02-.03-.02l-.03-.03h.01s-.03-.02-.03-.02l-.03-.04h.01s-.03-.03-.03-.03l-.03-.03-.03-.04h0s-.03-.03-.03-.03l-.04-.06-.03-.06-.03-.06-.03-.06h0s-.03-.07-.03-.07l-.02-.07-.02-.07-.02-.07-.02-.08-.02-.08-.02-.08v-.09s-.03-.09-.03-.09v-.09s-.03-.19-.03-.19l-.02-.19-.02-.19-.02-.2-.02-.2-.02-.2-.02-.2v-.1s-.03-.1-.03-.1l-.02-.1-.02-.1-.06-.29-.06-.28-.05-.29-.02-.09-.03-.2-.04-.29-.04-.29-.04-.29-.03-.29-.03-.3-.03-.3-.03-.3-.02-.3-.02-.3-.02-.3v-.3s-.03-.3-.03-.3v-.3s-.02-.3-.02-.3v-.04s-.02-.57-.02-.57v-.61s-.03-.61-.03-.61v-.61s-.03-.61-.03-.61l-.02-.61v-.3s-.02-.3-.02-.3l-.03-.6-.03-.61v-.31s-.03-.31-.03-.31l-.02-.31-.02-.31-.02-.31-.03-.31-.03-.28v-.03s-.05-.31-.05-.31l-.05-.3-.05-.3-.06-.3-.03-.14-.03-.16v-.04s-.03-.05-.03-.05l-.04-.09-.05-.1-.05-.11-.12-.25-.13-.26-.06-.12h0s-.08-.11-.08-.11l-.07-.1-.05-.09h0s-.02-.03-.02-.03l-.02-.03h0s-.01-.03-.01-.03h0s0-.02,0-.02h0s0,0,0,0v.02s0,0,0,0h0s0,0,0,0v.02s0,0,0,0h-.01s-.02.02-.02.02h-.01s.07-.09.07-.09h0s-.1-.07-.1-.07h0s-.01,0-.01,0h-.01s0,0,0,0h-.01s-.01.01-.01.01h0s0,.01,0,.01h0s-.01.02-.01.02v.02s-.02.02-.02.02v.04s0,.04,0,.04v.04s0,.05,0,.05v.05s.02.11.02.11l.02.13.02.14.05.13.11.27.1.25.04.11.03.09.02.08h0s0,.02,0,.02v-.02s0,.03,0,.03v-.02Z"/>
    <path class="cls-7" d="M617.61,322.11l-.07.15v.09s-.02.2-.02.2v.03s-.01.24-.01.24l-.02.23-.02.23-.03.23-.03.23-.03.23-.04.23-.04.23-.04.23-.04.23-.05.23-.05.23-.05.23-.04.19v.03s-.1.46-.1.46l-.1.46-.1.46-.1.46-.1.47-.05.23-.04.24-.04.24-.04.24-.04.24-.04.24-.09.59-.09.59-.09.59-.09.59-.09.59-.1.59-.1.59-.1.59-.2,1.18-.21,1.18-.21,1.17-.17.97-.04.21-.21,1.18-.21,1.18-.2,1.18-.2,1.18-.1.59-.1.59-.1.59-.09.59-.09.59-.09.59-.03.2-.06.39-.08.59-.07.56-.07.56-.07.56-.06.56-.06.56-.05.56h0s-.05.56-.05.56l-.04.56-.04.56-.04.56-.03.56-.03.56-.03.56v.2s-.02.36-.02.36l-.02.56-.02.56v.56s-.02.56-.02.56v.56s-.01.56-.01.56v.56s0,.56,0,.56v.56s0,.56,0,.56v1.11s.02,1.11.02,1.11v1.11s.03,1.11.03,1.11l.03,2.22v1.11s.02.19.02.19v.92s.02,1.11.02,1.11v1.11s0,.55,0,.55v.55s0,.55,0,.55v.55s-.01.55-.01.55v.55s-.02.55-.02.55v.55s-.03.55-.03.55l-.02.55-.02.55-.03.55-.03.55-.03.55-.04.55-.04.55-.04.55-.05.54-.05.55-.06.54-.04.39-.05.39-.05.39-.06.39-.06.4-.07.4-.05.28-.02.12-.07.4-.08.4-.08.4-.08.4-.09.4-.09.4-.09.41-.09.4-.1.4-.1.4-.1.4-.1.4-.1.4-.11.4-.11.4-.22.8-.22.79-.22.78-.22.77-.22.76-.11.38-.11.38-.1.38-.1.39-.1.39-.1.39-.1.39-.09.4-.09.4-.09.4-.09.4-.09.41-.09.41-.08.41-.03.14-.06.28-.08.41-.08.42-.08.42-.08.42-.07.42-.07.42-.07.42-.07.43-.07.43-.06.43-.06.43-.06.43-.06.43-.06.43-.06.43-.05.43-.05.43-.05.43-.05.43-.05.43-.04.43-.04.43-.04.43-.04.43-.04.43-.03.43-.03.43h0s-.02.43-.02.43l-.02.43-.02.43-.02.42-.02.42v.42s-.03.42-.03.42v.42s-.02.42-.02.42v.41s-.01.41-.01.41v.36s0,.06,0,.06v.41s0,.41,0,.41v.4s0,.4,0,.4v.4s.02.4.02.4v.39s.02.39.02.39v.39s.03.39.03.39l.19.19.18-.2v-.38s0-.39,0-.39v-.39s0-.39,0-.39v-.4s.01-.4.01-.4v-.4s.02-.4.02-.4v-.4s.03-.41.03-.41v-.06s.02-.35.02-.35l.02-.41.02-.41.02-.41.03-.42.03-.42.03-.42.03-.42.03-.42.04-.42.04-.42.04-.42h0s.04-.42.04-.42l.04-.43.04-.43.04-.43.04-.43.05-.43.05-.43.05-.43.05-.43.05-.43.06-.43.06-.43.06-.43.06-.43.06-.43.06-.42.07-.42.07-.42.07-.42.07-.42.07-.42.08-.42.08-.42.08-.42.08-.41.08-.41.08-.41.06-.27.03-.14.09-.41.09-.4.09-.4.09-.4.09-.4.1-.39.1-.39.1-.39.1-.39.1-.38.1-.38.11-.38.11-.37.11-.37.23-.76.23-.77.23-.78.23-.79.23-.8.11-.4.11-.4.11-.4.11-.41.11-.41.1-.41.1-.41.1-.41.1-.41.09-.41.09-.41.09-.41.09-.41.08-.41.08-.41.02-.12.05-.29.07-.41.07-.41.06-.4.06-.4.05-.4.05-.4.06-.55.06-.55.05-.55.05-.55.04-.55.04-.55.04-.55.03-.55.03-.55.03-.55.02-.55.02-.56.02-.55.02-.56v-.55s.03-.55.03-.55v-.55s.02-.55.02-.55v-.56s0-.56,0-.56v-1.11s0-1.11,0-1.11v-.92s0-.19,0-.19v-1.11s-.03-2.22-.03-2.22v-1.11s-.02-1.11-.02-1.11v-1.11s0-1.11,0-1.11v-.55s0-.55,0-.55v-.55s0-.55,0-.55v-.55s.02-.55.02-.55v-.55s.03-.55.03-.55l.02-.55.02-.55v-.35s.02-.2.02-.2l.02-.55.03-.55.03-.55.03-.55.04-.55.04-.55.04-.54h0s.04-.56.04-.56l.05-.55.05-.55.06-.55.06-.55.07-.55.07-.59.05-.39.03-.2.08-.59.08-.59.08-.59.08-.59.08-.59.09-.59.18-1.18.18-1.18.18-1.18.18-1.18.03-.21.15-.97.18-1.18.18-1.18.17-1.18.09-.59.08-.59.08-.59.08-.59.08-.59.08-.59.08-.59.07-.59.03-.23.03-.23.03-.23.04-.23.04-.23.04-.23.09-.46.09-.46.09-.46.09-.47.09-.47v-.03s.04-.2.04-.2l.03-.24.03-.24.03-.24.03-.24.03-.24.02-.24.02-.24.02-.24v-.24s.03-.24.03-.24v-.24s.01-.24.01-.24v-.24s0-.04,0-.04l-.02-.21v-.09s-.08-.15-.08-.15l-.09-.08-.08.09Z"/>
    <path class="cls-7" d="M612.76,320.21h-.03s-.32,0-.32,0h-.32s-.32.02-.32.02h-.32s-.32.03-.32.03h-.04s-.28.03-.28.03l-.32.03-.32.04-.32.04h-.06s-.26.06-.26.06l-.16.03-.15.03h-.01s-.16.04-.16.04l-.16.04-.16.04-.16.04-.07.02-.09.02-.16.05-.16.05-.16.05-.16.05-.16.05-.17.29.29.16.16-.03.16-.03.16-.03.16-.03.16-.02h.09s.07-.02.07-.02l.16-.02.16-.02.16-.02.16-.02h.01s.15-.02.15-.02l.16-.02.25-.03h.06s.31-.05.31-.05l.31-.03.31-.03.27-.02h.04s.31-.03.31-.03l.31-.02.31-.02h.31s.31-.02.31-.02h.03s.28,0,.28,0h.31s.31-.01.31-.01h.31s.62,0,.62,0h.62s.4,0,.4,0h.22s.58-.04.58-.04h.04s.3-.02.3-.02l.3-.02h.07s.23-.06.23-.06l.17-.04.13-.07.07-.07-.07-.07-.13-.06-.17-.03-.23-.05h-.07s-.3-.02-.3-.02l-.3-.02h-.04s-.57-.04-.57-.04l-.22-.02h-.4s-.62-.03-.62-.03h-.62s-.31-.02-.31-.02h-.31s-.32,0-.32,0h-.29Z"/>
    <path class="cls-4" d="M601.67,275.23h-.05s-.06,0-.06,0h-.05s-.05.02-.05.02h-.05s-.05.02-.05.02h-.05s-.05.03-.05.03l-.05.02-.05.02-.05.02-.05.02-.05.03-.05.03-.05.03-.04.03-.04.03-.04.03-.04.04-.04.04-.04.04-.04.04-.04.04-.03.04-.03.04-.03.04-.03.04-.03.05-.03.05-.03.05-.02.05-.02.05-.02.05-.02.05-.02.05v.05s-.03.05-.03.05v.05s-.02.05-.02.05v.05s-.01.05-.01.05v.05s0,.05,0,.05v.05s0,.05,0,.05v.05s0,.05,0,.05v.05s.02.05.02.05l.06.3.03.13.02.13v.05s.01.05.01.05v.05s0,.04,0,.04v.04s0,.03,0,.03v.02s0,.02,0,.02v.05s0,.05,0,.05v.07s-.02.07-.02.07l-.04.19-.04.21-.02.12-.02.13-.02.14-.02.15v.16s-.02.17-.02.17v.17s0,.11,0,.11v.1s.02.12.02.12l.02.12.02.12.03.11.03.11.03.11.04.1.04.1.04.1.04.09.04.09.05.09.09.16.09.15.09.14.09.14.09.13.09.12.09.11.09.11.12.14.03.05.06.09.09.11.08.09.09.09.11.1.07.05.04.03.04.02.04.02.04.02h.02s.04.03.04.03l.04.02.04.02.04.02.04.02h.02s.05.03.05.03l.05.02h.05s.05.03.05.03h.03s.05.02.05.02h.05s.05.02.05.02h.03s.05.01.05.01h.05s.05,0,.05,0h.03s.05,0,.05,0h.05s.05,0,.05,0h.1s.16-.02.16-.02l.15-.03.14-.04.13-.05.12-.05.1-.05.1-.05.1-.06.13-.1.12-.1.1-.09.09-.08.12-.12.05-.04.03-.02h0s.03-.03.03-.03l.04-.03.04-.04.04-.04.04-.04.04-.04.04-.04.03-.04.03-.04.03-.04.03-.04.03-.05.03-.05.03-.05.02-.05.02-.05.02-.05.02-.05.02-.05.02-.05v-.05s.02-.05.02-.05v-.05s.02-.05.02-.05v-.05s0-.05,0-.05v-.05s0-.05,0-.05v-.05s0-.05,0-.05v-.05s-.02-.05-.02-.05v-.05s-.02-.05-.02-.05v-.05s-.03-.05-.03-.05l-.02-.05-.02-.05-.02-.05-.02-.05-.03-.05-.03-.05-.03-.05-.03-.05-.03-.04-.03-.04-.03-.04-.04-.04-.04-.04-.04-.04-.04-.04-.04-.04-.04-.03-.04-.03-.04-.03-.05-.03-.05-.03-.05-.03-.05-.02-.05-.02-.05-.02-.05-.02-.05-.02h-.05s-.05-.03-.05-.03h-.05s-.06-.02-.06-.02h-.05s-.05-.01-.05-.01h-.06s-.05,0-.05,0h-.06s-.05,0-.05,0h-.06s-.05,0-.05,0h-.06s-.05.02-.05.02h-.05s-.05.02-.05.02h-.05s-.05.03-.05.03l-.05.02-.05.02h0s0-.03,0-.03h0s0-.03,0-.03h0s0-.03,0-.03v-.04s0-.05,0-.05v-.06s.02-.07.02-.07v-.08s.03-.09.03-.09l.04-.21.04-.24.02-.14.02-.14.02-.16v-.16s.02-.13.02-.13v-.13s0-.12,0-.12v-.12s-.02-.12-.02-.12v-.11s-.03-.11-.03-.11l-.02-.11-.03-.19-.04-.18-.06-.31v-.05s-.03-.05-.03-.05l-.02-.05-.02-.05-.02-.05-.02-.05-.02-.05-.02-.05-.03-.05-.03-.05-.03-.05-.03-.04-.03-.04-.04-.04-.04-.04-.04-.04-.04-.04-.04-.04-.04-.04-.04-.03-.04-.03-.04-.03-.05-.03-.05-.03-.05-.03-.05-.03-.05-.02-.05-.02-.05-.02-.05-.02-.05-.02h-.05s-.05-.02-.05-.02h-.05s-.05-.02-.05-.02h-.05s-.06-.01-.06-.01h-.05s-.06,0-.06,0h-.06Z"/>
    <path class="cls-19" d="M609.81,226.14s-2.65,6.12,1.93,7.41c10.92,3.07,11.11-9.84,11.11-9.84,2.57.46,7.29,1.72,8.74,2.52,2.78,1.54,5.1,4,5.78,7.18.29,1.39.22,2.79.17,4.17-.79,18.67.81,37.68,4.75,56.38.17.82.31,1.79-.24,2.32-.28.27-.69.35-1.08.41-14.74,2.38-27.6,9.34-42.38,4.19.2-4.09.3-8.47.36-12.97.13-10.13.17-34.87,1.98-45.17,1.1-6.23,8.9-16.6,8.9-16.6Z"/>
    <path class="cls-4" d="M641.76,326.03c.06,1.27.96,7.95,1.76,7.78.25-.05.01-1.8-.02-2.45-.07-1.59-.25-3.39-.1-4.96.04-.44-.06-.99-.02-1.38,0-.06-.08-.54,0-.51.12.06.13.67.15.77.13.69.22,1.37.31,2.05.29,2,.53,4.08,1.22,5.95.27.74.59,1.71,1.23,2.01.28.13-.78-9.09-.74-9.57,0-.03-.07-.57.03-.52.07.03.18.5.21.57.2.53.98,2.65,1.62,4.61.3.93,1.75,4.31,2.27,4.36.37.04.31-.48.33-.68.07-.73-1.46-5.54-1.66-7.26-.07-.58-.28-1.17-.38-1.75-.05-.3-.16-.91-.16-.91,0,0,.25.55.35.83.2.55.41,1.1.61,1.66.63,1.7,1.52,3.16,2.42,4.64.24.39.58.91,1.07.97.37.04-1.28-4.66-1.67-6.33-.46-1.94-.84-3.88-.93-5.88-.06-1.29,1.39-4.56,3.58-11.23.82-2.5-7.1-1.26-7.25-.97-.24.46-2.99,4.54-3.2,5.04-.48.36-1.04.74-1.56.99-2.59,1.28-5.03.88-4.98,2.32,0,.07-.3.31.79.57.07.02.83.27,1.34.41,0,0,2,.21,3.35.14h.06c-.27,2.92-.16,5.82-.03,8.74ZM636.66,316.16"/>
    <path class="cls-4" d="M619.66,238.47c1.67-2.55,5.44-11.77,22.26-3.23,13.21,6.71,36.59,38.32,6.48,81.85,0,0-2.74,4.89-4.7,2.5-3.76-4.59,9.85-28.46,7.36-44.6-1.88-12.18-8.37-19.48-19.17-24.49-8.6-3.99-13.9-9.5-12.23-12.04Z"/>
    <path class="cls-6" d="M641.29,259.84s-9.25-8.15-12.5-10.26c-4.17-2.71-15.81-9.98-15.81-9.98l16.27-14.34s5.37,2.06,10.86,5.73c5.05,3.37,14.62,13.07,14.36,13.68-3.27,7.52-13.17,15.17-13.17,15.17Z"/>
    <path class="cls-14" d="M615.54,232.07c6.51-1.49,6.94-7.89,6.94-7.89l-3.02-9.22c-.58-2.73-3.84-3.94-7.02-2.79-3.17,1.15-3.72,4.84-3.14,7.57l1.34,10.1c.58,2.73,3.16,2.62,4.9,2.23Z"/>
    <path class="cls-14" d="M602.52,218.79c1.77,7.27,11.81,3.97,15.5,2.74,5.5-1.85,17.44-16.05,12.08-24.24-5.36-8.2-17.67-8.3-22.61-5.45-4.94,2.84-6.22,21.84-4.98,26.96Z"/>
    <path class="cls-14" d="M622.1,210.82c-1.73,1.83-2.28,4.01-1.34,4.8,3.13,2.67,5.31,2.87,7.04,1.04,1.74-1.83,1.39-4.07-.18-5.68-1.57-1.61-3.79-2-5.52-.16"/>
    <path class="cls-6" d="M620.9,219.97s10.22.93,13.27-12.13c0,0,.88-5.68-.74-7.55,0,0,2.93-5.81-2.33-10.67-7.3-6.75-20.82-3.22-22.52-6.17,0,0,1.05,4.23,5.62,4.63,0,0-7.45-1.18-11.06-6,0,0-1.94,5.33,2.87,7.47,0,0-2.93,0-5.95-3.88,0,0-4.76,9.08,5.87,13.59,7.9,3.35,13.79-1.84,16.09,3.13,1.82,3.93-4.23,9.35-.1,13.38l4.25-4.9s1.44-.2,1.96.48c.62.81.23,2.61-1.21,3.94-1.95,1.81-4.21,1.66-4.21,1.66l-1.82,3Z"/>
  </g>
</svg>