<?xml version="1.0" encoding="UTF-8"?>
<svg id="Calque_1" data-name="Calque 1" xmlns="http://www.w3.org/2000/svg" width="454.22" height="60" viewBox="0 0 454.22 60">
  <defs>
    <style>
      .cls-1 {
        fill: #323336;
      }
    </style>
  </defs>
  <path class="cls-1" d="M45.78,39.34c-2.2,1.6-4.49,2.73-6.91,3.49-2.42.72-4.77,1.1-7.13,1.1-3.05,0-5.65-.57-7.79-1.66-2.17-1.1-3.8-2.67-4.96-4.71-1.13-2.04-1.7-4.49-1.7-7.35,0-2.1.31-3.99.94-5.68.63-1.66,1.54-3.11,2.76-4.3,1.19-1.22,2.67-2.14,4.46-2.76,1.76-.63,3.8-.97,6.12-.97,2.57,0,4.93.41,7.03,1.22,2.1.78,3.89,2.01,5.37,3.61l8.07-13.56c-2.76-2.32-5.78-4.14-9.04-5.43-3.27-1.26-7.44-1.92-12.5-1.92-4.43,0-8.51.72-12.24,2.2-3.74,1.44-6.97,3.52-9.7,6.19-2.73,2.67-4.84,5.84-6.34,9.51-1.48,3.67-2.23,7.72-2.23,12.15,0,6.06,1.29,11.3,3.86,15.73,2.54,4.43,6.12,7.85,10.67,10.24,4.55,2.39,9.8,3.58,15.73,3.58,5.24,0,9.73-.66,13.53-1.95,3.77-1.32,6.94-2.95,9.48-4.9l-7.5-13.81Z"/>
  <path class="cls-1" d="M112.28,18.56c-1.54-3.61-3.67-6.78-6.44-9.48-2.76-2.73-6-4.87-9.73-6.37-3.77-1.54-7.85-2.29-12.31-2.29s-8.57.75-12.34,2.26c-3.77,1.48-7,3.58-9.76,6.28-2.76,2.7-4.9,5.84-6.41,9.45-1.54,3.64-2.29,7.57-2.29,11.81s.75,8.13,2.29,11.77c1.51,3.61,3.64,6.75,6.41,9.45,2.76,2.7,6,4.8,9.76,6.31,3.77,1.51,7.85,2.26,12.34,2.26s8.54-.75,12.31-2.26c3.74-1.51,6.97-3.61,9.73-6.31,2.76-2.7,4.9-5.84,6.44-9.45,1.54-3.64,2.29-7.54,2.29-11.77s-.75-8.04-2.29-11.65ZM98.49,30.89c-.13,1.79-.78,3.8-1.54,5.4-.16.35-.78,1.29-.82,1.57l2.2,7.79c.19,1.13-.78,1.88-1.7,1.38l-6.59-3.74c-3.14,1.44-6.66,1.73-9.95.85-.03,0-.09,0-.13-.03-.5-.13-.94-.28-1.38-.47-.13,0-.22-.06-.35-.13-2.13-.85-4.08-2.23-5.68-4.11-3.92-4.68-4.71-11.77-1.73-17.33,3.01-5.59,9.01-8.45,14.73-7.75,6.37.78,12.4,6.41,12.94,13.78.06.75.06,2.04,0,2.79Z"/>
  <path class="cls-1" d="M155.13,35.45c1.95-.82,3.77-1.95,5.4-3.39,1.63-1.44,2.92-3.23,3.89-5.31,1-2.1,1.48-4.55,1.48-7.32,0-3.77-.91-7-2.76-9.64-1.82-2.67-4.4-4.68-7.75-6.09-3.33-1.38-7.22-2.07-11.68-2.07h-24.24v57.14h16.48v-19.65h3.17l10.71,19.65h19.43l-14.13-23.33ZM147.31,24.9c-1.29.82-3.08,1.22-5.34,1.22h-6.03v-11.08h6.12c2.2,0,3.96.38,5.24,1.19,1.29.78,1.95,2.26,1.95,4.33s-.66,3.52-1.95,4.33Z"/>
  <path class="cls-1" d="M216.89,10.71c-1.95-2.95-4.65-5.18-8.1-6.75-3.42-1.54-7.32-2.32-11.71-2.32h-24.4v57.14h16.48v-17.61h7.5c4.9,0,9.07-.78,12.53-2.35,3.45-1.54,6.12-3.77,7.94-6.72,1.82-2.95,2.73-6.5,2.73-10.71s-1-7.72-2.98-10.67ZM201.41,26.22c-1.32.88-3.11,1.29-5.4,1.29h-6.84v-11.84h6.94c2.13,0,3.86.44,5.21,1.29,1.38.85,2.04,2.39,2.04,4.68s-.63,3.74-1.95,4.58Z"/>
  <path class="cls-1" d="M315.41,51.08c-1.73.63-3.49.97-5.31.97-3.99,0-7.06-1.04-9.29-3.11-2.2-2.04-3.33-4.87-3.33-8.45,0-2.92.6-5.53,1.82-7.85,1.22-2.29,2.92-4.14,5.15-5.49,2.2-1.38,4.87-2.04,7.97-2.04,2.13,0,4.05.31,5.81.94,1.73.63,3.17,1.6,4.36,2.92l5.49-6.53c-1.88-1.76-4.08-3.08-6.53-3.99-2.48-.88-5.21-1.32-8.19-1.32-3.45,0-6.72.6-9.73,1.82-3.05,1.22-5.71,2.92-8.01,5.09-2.29,2.17-4.08,4.71-5.37,7.6-1.29,2.92-1.92,6.06-1.92,9.45,0,3.64.85,6.91,2.51,9.73,1.66,2.86,4.02,5.09,7.06,6.72,3.01,1.63,6.59,2.45,10.68,2.45,2.48,0,4.96-.38,7.41-1.13,2.45-.72,4.77-1.79,7-3.11l-3.05-7.19c-1.32,1.04-2.86,1.88-4.55,2.51Z"/>
  <path class="cls-1" d="M369.61,24.58c-1.07-2.32-2.73-4.14-5.02-5.46-2.26-1.32-4.96-1.98-8.04-1.98-2.61,0-5.18.57-7.69,1.66-2.01.91-3.86,2.17-5.59,3.8l4.83-22.61h-8.98l-12.56,58.78h8.98l4.84-22.7c.5-2.26,1.35-4.21,2.51-5.78,1.19-1.6,2.61-2.79,4.27-3.64,1.63-.85,3.39-1.26,5.27-1.22,3.11,0,5.43.85,7.03,2.57,1.57,1.73,2.04,4.05,1.38,6.97l-5.12,23.8h8.98l5.65-26.37c.56-2.89.31-5.53-.75-7.82Z"/>
  <path class="cls-1" d="M413.62,18.37l-1.41,6.59c-1.1-1.95-2.7-3.61-4.77-4.99-2.83-1.88-6.41-2.83-10.74-2.83-3.3,0-6.37.66-9.17,1.92-2.79,1.29-5.24,3.05-7.35,5.31-2.1,2.26-3.74,4.87-4.87,7.82-1.16,2.92-1.76,6.06-1.76,9.39,0,3.58.78,6.75,2.32,9.51,1.54,2.76,3.7,4.93,6.5,6.53s6.12,2.39,9.92,2.39,6.75-.75,9.26-2.29c1.73-1.04,3.23-2.29,4.52-3.74l-1.04,4.8h7.97l8.57-40.41h-7.97ZM406.78,44.55c-1.26,2.32-2.98,4.14-5.18,5.49-2.17,1.32-4.62,2.01-7.35,2.01-2.32,0-4.36-.47-6.12-1.41-1.73-.94-3.08-2.26-4.05-3.99s-1.44-3.71-1.44-6c0-2.95.63-5.62,1.88-7.97,1.26-2.35,2.95-4.21,5.09-5.56,2.17-1.35,4.62-2.01,7.35-2.01,2.32,0,4.36.44,6.12,1.38,1.73.91,3.11,2.26,4.11,3.99.97,1.73,1.48,3.74,1.48,6.09,0,2.98-.63,5.65-1.88,7.97Z"/>
  <path class="cls-1" d="M425.15,18.37l-1.57,7.44h10.02l1.6-7.44h-10.05ZM441.41,25.81h11.21l1.6-7.44h-11.24l2.54-11.81h-8.98l-2.51,11.81-1.57,7.44-4.33,20.28c-.91,4.46-.34,7.88,1.7,10.3,2.07,2.42,5.27,3.61,9.67,3.61,1.41,0,2.79-.13,4.14-.44,1.38-.28,2.61-.66,3.74-1.16l-.06-7.57c-.69.28-1.44.53-2.23.72-.78.19-1.63.28-2.54.28-2.42,0-3.99-.66-4.74-1.95-.72-1.32-.82-3.23-.28-5.78l3.89-18.3Z"/>
  <path class="cls-1" d="M279.31,18.56c-1.54-3.61-3.67-6.78-6.44-9.48-2.76-2.73-6.03-4.87-9.76-6.37-3.74-1.54-7.85-2.29-12.31-2.29s-8.57.75-12.31,2.26c-3.77,1.48-7.03,3.58-9.8,6.28-2.76,2.7-4.9,5.84-6.41,9.45-1.51,3.64-2.26,7.57-2.26,11.81s.75,8.13,2.26,11.77c1.51,3.61,3.64,6.75,6.41,9.45,2.76,2.7,6.03,4.8,9.8,6.31,3.74,1.51,7.85,2.26,12.31,2.26s8.57-.75,12.31-2.26c3.74-1.51,7-3.61,9.76-6.31,2.76-2.7,4.9-5.84,6.44-9.45,1.51-3.64,2.26-7.54,2.26-11.77s-.75-8.04-2.26-11.65ZM265.52,30.89c-.16,1.79-.82,3.8-1.57,5.4-.16.35-.78,1.29-.78,1.57l2.2,7.79c.16,1.13-.78,1.88-1.73,1.38l-6.56-3.74c-3.14,1.44-6.69,1.73-9.98.85-.03,0-.09,0-.13-.03-.47-.13-.91-.28-1.38-.47-.03.03-.06,0-.06,0-.09-.03-.19-.06-.25-.13-.03.03-.03,0-.03,0-.25-.09-.5-.19-.72-.31-.25-.09-.5-.22-.72-.38-1.57-.82-3.01-1.98-4.21-3.42-3.96-4.68-4.71-11.77-1.73-17.33,2.98-5.59,9.01-8.45,14.73-7.75,6.34.78,12.4,6.41,12.94,13.78.06.75.06,2.04,0,2.79Z"/>
</svg>