<?xml version="1.0" encoding="UTF-8"?>
<svg xmlns="http://www.w3.org/2000/svg" width="30" height="33.1" viewBox="0 0 30 33.1">
  <defs>
    <style>
      .cls-1 {
        isolation: isolate;
      }

      .cls-2 {
        mix-blend-mode: multiply;
      }

      .cls-3 {
        fill: #323336;
      }
    </style>
  </defs>
  <g class="cls-1">
    <g id="Calque_1" data-name="Calque 1">
      <g class="cls-2">
        <path class="cls-3" d="M2.93,33.1c-.55,0-1.09-.16-1.55-.48-.89-.62-1.35-1.73-1.19-2.88l.05-.24,1.8-6.39c-.04-.06-.07-.12-.1-.17-.14-.24-.27-.47-.34-.63-.85-1.81-1.42-3.79-1.57-5.43-.07-.78-.07-2.04,0-2.81C.56,6.99,6.21.97,13.19.11c6.05-.74,12.07,2.43,14.98,7.88,2.99,5.56,2.26,12.76-1.76,17.51-2.24,2.71-5.59,4.59-9.19,5.15-1.47.23-2.96.24-4.43.03-.74-.11-1.47-.27-2.18-.48-.17-.05-.34-.12-.71-.29-.09-.04-.22-.1-.35-.15-.54.33-1.27.74-2.26,1.3l-2.95,1.68c-.46.24-.94.36-1.42.36ZM10.21,29.34c-.08.05-.17.11-.27.17.09-.03.19-.08.29-.13l-.02-.04ZM4.81,20.88c.04.08.11.2.18.32.36.62.67,1.16.67,1.79v.24l-1.59,5.64c1.11-.63,2.62-1.49,3.56-2.03h0s.89-.51.89-.51c.86-.49,1.63-.15,2.8.36.15.07.29.13.36.16.48.14,1.04.26,1.61.35,1.13.16,2.28.15,3.4-.02,2.76-.43,5.33-1.86,7.04-3.94,3.13-3.7,3.68-9.29,1.36-13.61-2.23-4.18-6.84-6.62-11.46-6.06-4.61.57-9.65,4.76-10.08,10.76-.05.6-.05,1.66,0,2.24.11,1.23.57,2.81,1.25,4.25l.02.05Z"/>
      </g>
    </g>
  </g>
</svg>