<?xml version="1.0" encoding="UTF-8"?>
<svg id="Calque_1" data-name="Calque 1" xmlns="http://www.w3.org/2000/svg" width="30" height="25.2" viewBox="0 0 30 25.2">
  <defs>
    <style>
      .cls-1 {
        fill: #323336;
      }
    </style>
  </defs>
  <path class="cls-1" d="M11.45,12.86c-.28-.36-.6-.69-.84-1.09-.48-.8-.78-1.75-.79-2.69-1.51.09-3.15-.12-4.64,0C2.57,9.29.31,11.53.05,14.12c-.17,1.64.12,3.54,0,5.21,2.16.69,4.39,1.17,6.66,1.29-.02-1.24-.05-2.4.36-3.59.69-1.98,2.37-3.57,4.37-4.17Z"/>
  <path class="cls-1" d="M21.07,15.25c-1.95-1.95-5.08-1.8-7.66-1.66-3.04.16-5.28,2.12-5.64,5.18v5.12c3.85,1.2,8.05,1.76,12.03.9.61-.13,1.33-.32,1.91-.54.15-.06.9-.36.96-.44.05-.05.07-.1.06-.17-.14-2.96.65-6.07-1.66-8.38Z"/>
  <path class="cls-1" d="M29.51,12.5c-.78-1.87-2.67-3.27-4.71-3.42-1.32-.1-2.79.05-4.12.03-.05.03-.11.81-.14.97-.24,1.24-.78,1.72-1.43,2.66-.03.05-.08.06-.06.15,2.3.64,4.16,2.74,4.59,5.09.16.89.15,1.79.15,2.69,2.11-.16,4.27-.45,6.18-1.41-.14-2.18.4-4.72-.45-6.76Z"/>
  <path class="cls-1" d="M15.23,13.31c2.42,0,4.38-1.97,4.38-4.39s-1.96-4.39-4.38-4.39-4.38,1.97-4.38,4.39,1.96,4.39,4.38,4.39Z"/>
  <path class="cls-1" d="M9.24,8.43c.14-.06.52-.23.59-.34.11-.16.21-.8.3-1.05.21-.59.68-1.36,1.11-1.82.51-.55.73-.34.67-1.25C11.71,1.43,9.39-.22,6.93.03c-1.67.17-3.19,1.55-3.63,3.16-.97,3.55,2.53,6.66,5.93,5.24Z"/>
  <path class="cls-1" d="M20.63,8.37c3.89,1.76,7.81-2.46,5.65-6.21-2.2-3.82-8.12-2.24-8.16,2.14,1.38.92,2.36,2.39,2.51,4.07Z"/>
</svg>