<?xml version="1.0" encoding="UTF-8"?>
<svg id="Calque_1" data-name="Calque 1" xmlns="http://www.w3.org/2000/svg" width="50" height="42.83" viewBox="0 0 50 42.83">
  <defs>
    <style>
      .cls-1 {
        fill: #323336;
      }
    </style>
  </defs>
  <path class="cls-1" d="M46.45,17.87H12.12l11.81-11.81c1.39-1.39,1.39-3.63,0-5.02-1.39-1.39-3.63-1.39-5.02,0L1.04,18.91s0,0,0,0h0s0,0,0,0c-.16.16-.31.34-.44.53-.04.06-.06.12-.09.17-.08.14-.17.28-.23.44-.03.08-.05.16-.07.23-.05.14-.1.28-.13.43-.05.23-.07.46-.07.7s.02.47.07.7c.03.15.08.29.13.43.03.08.04.16.07.23.06.15.15.29.23.43.03.06.06.12.1.18.13.19.27.37.44.53,0,0,0,0,0,0h0s0,0,0,0l17.87,17.87c.69.69,1.6,1.04,2.51,1.04s1.82-.35,2.51-1.04c1.39-1.39,1.39-3.63,0-5.02l-11.81-11.81h34.33c1.96,0,3.55-1.59,3.55-3.55s-1.59-3.55-3.55-3.55Z"/>
</svg>