<?xml version="1.0" encoding="UTF-8"?>
<svg id="Calque_1" data-name="Calque 1" xmlns="http://www.w3.org/2000/svg" width="30" height="30.01" viewBox="0 0 30 30.01">
  <defs>
    <style>
      .cls-1 {
        fill: #b6b4bd;
      }
    </style>
  </defs>
  <path class="cls-1" d="M11.63.03c9.53-.65,16.3,9.26,12.14,17.91-.24.49-.6.96-.79,1.45l6.32,6.34c2.09,2.36-.88,5.64-3.43,3.67l-6.47-6.43c-.11-.03-1.16.65-1.4.76-7.04,3.43-15.53-.43-17.56-7.96C-1.61,8.2,3.81.57,11.63.03ZM21.24,12.5c0-4.83-3.91-8.74-8.74-8.74S3.76,7.67,3.76,12.5s3.91,8.74,8.74,8.74,8.74-3.91,8.74-8.74Z"/>
</svg>