<?xml version="1.0" encoding="UTF-8"?>
<svg id="Calque_1" data-name="Calque 1" xmlns="http://www.w3.org/2000/svg" width="30" height="30" viewBox="0 0 30 30">
  <defs>
    <style>
      .cls-1 {
        fill: #323336;
      }
    </style>
  </defs>
  <path class="cls-1" d="M30,13.32v3.39c-.42,1.88-2.39,1.58-3.88,1.83-.1.03-.15.14-.19.22-.22.45-.34,1.04-.61,1.49.75,1.3,2.7,2.58,1.4,4.21-.4.51-1.81,1.92-2.31,2.31-1.54,1.19-2.91-.7-4.11-1.45l-1.65.67-.11.12c-.24,1.49.06,3.46-1.82,3.88h-3.39c-1.88-.42-1.58-2.39-1.83-3.88-.03-.1-.14-.15-.22-.19-.46-.22-1.04-.34-1.49-.61-1.28.74-2.57,2.67-4.18,1.43-.48-.37-1.97-1.86-2.34-2.34-1.19-1.54.7-2.91,1.45-4.11l-.64-1.62c-.05-.09-.1-.13-.2-.15-1.46-.3-3.67.1-3.83-2.02-.05-.66-.08-2.94.09-3.48.52-1.61,2.51-1.27,3.83-1.55.16-.07.25-.56.32-.73.1-.22.37-.7.41-.88.02-.08.03-.13-.03-.21-.78-1.16-2.57-2.52-1.41-4.03.42-.54,1.76-1.87,2.31-2.31,1.53-1.26,2.79.47,3.96,1.25.09.06.17.16.3.14.12-.02.74-.35.92-.43s.66-.17.73-.32c.27-1.51-.04-3.76,2.05-3.92.67-.05,2.98-.08,3.53.11,1.56.54,1.22,2.44,1.48,3.73.02.08.04.14.12.17l1.65.67c1.2-.75,2.56-2.64,4.11-1.45.54.42,1.87,1.76,2.31,2.31,1.31,1.59-.66,2.94-1.4,4.21.27.45.39,1.04.61,1.49.04.09.08.19.19.22,1.49.24,3.46-.06,3.88,1.83ZM21.26,15.02c0-3.45-2.79-6.24-6.24-6.24s-6.24,2.79-6.24,6.24,2.79,6.24,6.24,6.24,6.24-2.79,6.24-6.24Z"/>
</svg>